<svg width="5" height="5" viewBox="0 0 5 5" fill="none"
     xmlns="http://www.w3.org/2000/svg">
    <path d="M2.49999 0C1.11929 0 0 1.11929 0 2.49999C0 3.8807 1.11929 4.99999 2.49999 4.99999C3.8807 4.99999 4.99999 3.8807 4.99999 2.49999C4.99852 1.1199 3.8801 0.00147531 2.49999 0ZM2.49999 4.64285C1.31653 4.64285 0.357139 3.68346 0.357139 2.49999C0.357139 1.31653 1.31653 0.357139 2.49999 0.357139C3.68346 0.357139 4.64285 1.31653 4.64285 2.49999C4.64157 3.68294 3.68294 4.64157 2.49999 4.64285Z"
          fill="#1274AE"/>
    <path d="M2.5001 3.92854C3.28908 3.92854 3.92867 3.28895 3.92867 2.49998C3.92867 1.711 3.28908 1.07141 2.5001 1.07141C1.71112 1.07141 1.07153 1.711 1.07153 2.49998C1.07153 3.28895 1.71112 3.92854 2.5001 3.92854Z"
          fill="#1274AE"/>
</svg>
