<svg width="12" height="12" viewBox="0 0 12 12" fill="none"
     xmlns="http://www.w3.org/2000/svg">
    <g clip-path="url(#clip0)">
        <path d="M1.15176 4.19201C1.30356 4.29912 1.76114 4.61726 2.52452 5.14626C3.28792 5.67525 3.87274 6.08257 4.27899 6.36822C4.32363 6.39953 4.41845 6.4676 4.56352 6.57251C4.70861 6.67749 4.82917 6.76233 4.9251 6.82704C5.0211 6.89173 5.13715 6.9643 5.27338 7.04463C5.40955 7.12489 5.53792 7.18526 5.65845 7.22523C5.77901 7.26553 5.89061 7.28549 5.99327 7.28549H6H6.00676C6.10942 7.28549 6.22106 7.2655 6.34162 7.22523C6.4621 7.18526 6.59059 7.12482 6.72665 7.04463C6.86278 6.9642 6.97883 6.89171 7.07483 6.82704C7.17083 6.76233 7.29129 6.67749 7.43643 6.57251C7.58148 6.4675 7.67642 6.39953 7.72105 6.36822C8.1317 6.08257 9.17644 5.35709 10.8549 4.19187C11.1808 3.96429 11.4531 3.68968 11.6718 3.36823C11.8907 3.04693 12 2.70986 12 2.35722C12 2.06254 11.8939 1.81028 11.6818 1.60048C11.4698 1.39063 11.2186 1.28577 10.9285 1.28577H1.07138C0.727657 1.28577 0.463135 1.40182 0.277867 1.63393C0.0926224 1.86608 0 2.15626 0 2.50445C0 2.78569 0.122808 3.09046 0.368308 3.41857C0.613784 3.7467 0.875022 4.00453 1.15176 4.19201Z"
              fill="#1274AE"/>
        <path d="M11.3303 4.90843C9.86613 5.89941 8.75438 6.66957 7.99556 7.21874C7.7411 7.40616 7.53468 7.55247 7.37615 7.65732C7.21762 7.76223 7.00678 7.86937 6.74334 7.97869C6.47999 8.08818 6.23456 8.14276 6.00684 8.14276H6.00002H5.99329C5.76561 8.14276 5.52004 8.08818 5.25669 7.97869C4.99335 7.86937 4.78237 7.76223 4.62389 7.65732C4.46545 7.55247 4.25896 7.40616 4.00452 7.21874C3.40181 6.77681 2.29245 6.0066 0.676407 4.90843C0.421878 4.7389 0.196432 4.54458 0 4.32587V9.64268C0 9.93751 0.104866 10.1896 0.314714 10.3994C0.524515 10.6093 0.776793 10.7143 1.07145 10.7143H10.9286C11.2232 10.7143 11.4755 10.6093 11.6853 10.3994C11.8952 10.1895 12 9.93753 12 9.64268V4.32587C11.808 4.54005 11.5849 4.73438 11.3303 4.90843Z"
              fill="#1274AE"/>
    </g>
    <defs>
        <clipPath id="clip0">
            <rect width="12" height="12" fill="white"/>
        </clipPath>
    </defs>
</svg>
