<svg width="20" height="33" viewBox="0 0 20 33" fill="none" xmlns="http://www.w3.org/2000/svg">
    <path d="M12.8269 2.84475C12.8269 4.41605 11.5535 5.68975 9.9822 5.68975C8.41116 5.68975 7.13745 4.41605 7.13745 2.84475C7.13745 1.2737 8.41116 0 9.9822 0C11.5535 0 12.8269 1.2737 12.8269 2.84475Z" fill="#003859"/>
    <path d="M2.05099 16.9096L6.3978 10.7762L7.1375 14.793L5.60699 19.3848C5.49042 19.7345 5.4441 20.1036 5.47028 20.4714L5.96526 27.919C5.98641 28.2176 6.23516 28.449 6.53426 28.4482H6.5685V31.9816C6.56825 32.2517 6.6755 32.511 6.86634 32.7021C7.05744 32.893 7.31676 33.0002 7.58691 33H7.82584C8.09599 33.0002 8.35531 32.893 8.5464 32.7021C8.7375 32.511 8.84475 32.2517 8.84425 31.9816V28.4482H11.1202V31.9816C11.12 32.2517 11.227 32.511 11.4181 32.7021C11.6092 32.893 11.8685 33.0002 12.1387 33H12.3776C12.6477 33.0002 12.9071 32.893 13.0982 32.7021C13.2892 32.511 13.3963 32.2517 13.396 31.9816V28.4482H13.4302C13.7296 28.449 13.9783 28.2176 13.9992 27.919L14.4942 20.4714C14.5204 20.1036 14.4741 19.7345 14.3575 19.3848L12.827 14.793L13.5667 10.7762L17.9138 16.9096C18.1074 17.1823 18.411 17.3558 18.7441 17.3842C19.0774 17.4127 19.4063 17.2933 19.6434 17.0577C20.0344 16.641 20.0727 16.0048 19.7343 15.544L14.4771 8.11906C14.1571 7.66663 13.6374 7.39724 13.083 7.39648H12.332C11.9335 7.39749 11.5644 7.60671 11.3592 7.94836L9.98225 10.2415L8.60532 7.94836C8.40013 7.60671 8.03103 7.39749 7.63248 7.39648H6.88145C6.32705 7.39724 5.80765 7.66663 5.4874 8.11906L0.23019 15.544C-0.108188 16.0048 -0.0699194 16.641 0.321331 17.0577C0.558499 17.2933 0.88731 17.4127 1.2204 17.3842C1.55349 17.3558 1.85713 17.1823 2.05099 16.9096Z" fill="#003859"/>
</svg>
