<svg width="71" height="85" viewBox="0 0 71 85" fill="none" xmlns="http://www.w3.org/2000/svg">
<path d="M70.0379 73.843L61.1203 62.3783C64.0099 61.5149 66.506 59.6669 68.1753 57.1552C70.2753 53.5251 69.3257 49.0948 68.4068 44.8155C67.8512 42.6172 67.5187 40.3684 67.4146 38.1035C67.5183 35.8365 67.8506 33.5856 68.4068 31.3855C69.3198 27.1033 70.2753 22.6759 68.1753 19.0517C66.0004 15.2941 61.6215 13.9034 57.3861 12.5609C55.2778 11.9801 53.236 11.1804 51.294 10.1751C49.5317 9.03198 47.8954 7.70569 46.4123 6.21819C43.2703 3.30181 39.7076 0 35.1733 0C30.639 0 27.0763 3.30181 23.9328 6.21672C22.4502 7.70459 20.8143 9.03143 19.0526 10.1751C17.1108 11.1784 15.0695 11.976 12.9619 12.5551C8.72655 13.8975 4.34759 15.2883 2.17276 19.0459C0.0726752 22.6759 1.02233 27.1062 1.94121 31.3855C2.49682 33.5858 2.82876 35.8365 2.9319 38.1035C2.82821 40.3704 2.49591 42.6213 1.93974 44.8214C1.02673 49.1036 0.0712097 53.5309 2.1713 57.1552C3.84272 59.6678 6.34161 61.5153 9.23362 62.3768L0.308624 73.8416C-0.188187 74.4805 -0.0729608 75.4012 0.566188 75.898C0.873214 76.1367 1.26231 76.2435 1.64811 76.1952L12.1266 74.8865L14.7132 83.9375C14.8647 84.468 15.3014 84.8685 15.8431 84.9736C15.9349 84.991 16.0281 85 16.1216 85C16.574 85.0004 17.0014 84.7915 17.2793 84.4343L26.6381 72.3966C28.9412 74.6386 31.9664 75.9893 35.1733 76.2069C38.3802 75.9893 41.4054 74.6386 43.7084 72.3966L53.0672 84.4299C53.3442 84.7888 53.7716 84.9993 54.225 85C54.3184 85 54.4117 84.991 54.5034 84.9736C55.0451 84.8685 55.4819 84.468 55.6334 83.9375L58.22 74.8879L68.6984 76.1966C69.5015 76.2974 70.2343 75.728 70.3351 74.9249C70.3834 74.5391 70.2766 74.15 70.0379 73.843ZM16.7371 80.3558L14.5989 72.8728C14.4001 72.1787 13.7252 71.7329 13.0088 71.8221L4.8019 72.8479L12.1573 63.3924L12.9678 63.6518C15.0733 64.2312 17.1126 65.0288 19.0526 66.0318C20.8149 67.1749 22.4511 68.5012 23.9342 69.9887L24.4384 70.4547L16.7371 80.3558ZM35.1733 73.2759C31.7879 73.2759 28.9404 70.6379 25.9244 67.8417C24.2836 66.2024 22.4711 64.7447 20.5181 63.4935C18.3933 62.3812 16.1565 61.497 13.8456 60.8556C9.97224 59.626 6.31285 58.4653 4.70664 55.6897C3.17371 53.0385 3.96509 49.344 4.80483 45.431C5.40917 43.0314 5.76383 40.576 5.86293 38.1035C5.76438 35.6309 5.41027 33.1755 4.8063 30.7759C3.96655 26.8644 3.17517 23.1698 4.70811 20.5172C6.32017 17.7416 9.97371 16.5809 13.8471 15.3513C16.1576 14.7098 18.3937 13.8255 20.5181 12.7134C22.4705 11.4622 24.2826 10.0044 25.9229 8.36517C28.9404 5.56897 31.7879 2.93103 35.1733 2.93103C38.5586 2.93103 41.4061 5.56897 44.4222 8.36517C46.063 10.0045 47.8755 11.4622 49.8284 12.7134C51.9533 13.8257 54.19 14.7099 56.5009 15.3513C60.3743 16.5809 64.0337 17.7416 65.6399 20.5172C67.1728 23.1684 66.3815 26.8629 65.5417 30.7759C64.9374 33.1755 64.5827 35.6309 64.4836 38.1035C64.5822 40.576 64.9363 43.0314 65.5403 45.431C66.38 49.3425 67.1714 53.0371 65.6384 55.6897C64.0264 58.4653 60.3728 59.626 56.4995 60.8556C54.1889 61.4971 51.9529 62.3814 49.8284 63.4935C47.876 64.7447 46.0639 66.2025 44.4236 67.8417C41.4061 70.6379 38.5586 73.2759 35.1733 73.2759ZM57.3451 71.8221C56.6286 71.7329 55.9538 72.1787 55.755 72.8728L53.6095 80.3558L45.9097 70.4562L46.4138 69.9902C47.8963 68.5023 49.5322 67.1755 51.294 66.0318C53.2358 65.0285 55.2771 64.2309 57.3847 63.6518L58.1951 63.3924L65.552 72.8479L57.3451 71.8221Z" fill="url(#paint0_linear)"/>
<path d="M35.1733 11.7242C20.6044 11.7242 8.79395 23.5346 8.79395 38.1035C8.79395 52.6723 20.6044 64.4828 35.1733 64.4828C49.7421 64.4828 61.5526 52.6723 61.5526 38.1035C61.5357 23.5415 49.7352 11.7412 35.1733 11.7242ZM35.1733 61.5517C22.2232 61.5517 11.725 51.0535 11.725 38.1035C11.725 25.1534 22.2232 14.6552 35.1733 14.6552C48.1233 14.6552 58.6215 25.1534 58.6215 38.1035C58.6061 51.0473 48.1171 61.5363 35.1733 61.5517Z" fill="url(#paint1_linear)"/>
<path d="M52.0827 31.982C51.5313 31.2245 50.6512 30.7762 49.7144 30.7758H40.7425L37.958 22.2363C37.4526 20.6984 35.7962 19.8616 34.2583 20.367C33.3737 20.6577 32.6798 21.3516 32.3891 22.2363L29.6119 30.7758H20.6327C19.0138 30.7751 17.7009 32.0866 17.7002 33.7054C17.6996 34.6433 18.1481 35.5247 18.9063 36.0766L26.1694 41.3525L23.3952 49.892C22.8947 51.4316 23.7372 53.0852 25.2766 53.5855C26.1692 53.8757 27.1467 53.7207 27.9061 53.1689L35.1736 47.8945L42.4381 53.1704C43.4614 53.9306 44.8617 53.9306 45.885 53.1704C46.9235 52.4323 47.3558 51.1009 46.949 49.8935L44.1748 41.3525L51.4379 36.0766C52.7468 35.124 53.0355 33.2907 52.0827 31.982ZM41.5896 39.6085C41.0756 39.982 40.8607 40.6443 41.0576 41.2484L44.1616 50.8007L36.0353 44.8976C35.5218 44.5248 34.8268 44.5248 34.3133 44.8976L26.187 50.8007L29.2895 41.2484C29.4857 40.6446 29.271 39.9833 28.7575 39.61L20.6327 33.7069H30.6759C31.3108 33.7069 31.8734 33.298 32.0696 32.6942L35.1736 23.142L38.2775 32.6927C38.4737 33.2965 39.0363 33.7054 39.6712 33.7054L49.7144 33.7069L41.5896 39.6085Z" fill="url(#paint2_linear)"/>
<defs>
<linearGradient id="paint0_linear" x1="35.1732" y1="0" x2="35.1732" y2="85" gradientUnits="userSpaceOnUse">
<stop stop-color="#FF9E03"/>
<stop offset="1" stop-color="#FFC215"/>
<stop offset="1" stop-color="white" stop-opacity="0"/>
</linearGradient>
<linearGradient id="paint1_linear" x1="35.1733" y1="11.7242" x2="35.1733" y2="64.4828" gradientUnits="userSpaceOnUse">
<stop stop-color="#FF9E03"/>
<stop offset="1" stop-color="#FFC215"/>
<stop offset="1" stop-color="white" stop-opacity="0"/>
</linearGradient>
<linearGradient id="paint2_linear" x1="35.1722" y1="20.2197" x2="35.1722" y2="53.7406" gradientUnits="userSpaceOnUse">
<stop stop-color="#FF9E03"/>
<stop offset="1" stop-color="#FFC215"/>
<stop offset="1" stop-color="white" stop-opacity="0"/>
</linearGradient>
</defs>
</svg>
