<svg width="83" height="84" viewBox="0 0 83 84" fill="none" xmlns="http://www.w3.org/2000/svg">
<path d="M63.5995 37.1656C63.5995 34.538 61.4619 32.4006 58.8343 32.4006H50.0769C52.2045 30.009 53.5951 27.2857 53.8637 24.8426C54.0278 23.3504 53.5667 21.8692 52.5985 20.7787C51.7135 19.7819 50.5034 19.2263 49.1909 19.2142C49.1757 19.214 49.1605 19.214 49.1454 19.214C47.8759 19.214 46.6844 19.7029 45.7852 20.5939C44.8858 21.485 44.3881 22.6721 44.3823 23.939C44.3361 24.2164 43.8481 25.1726 42.6542 26.308C41.6767 27.2379 39.9882 28.5161 37.4951 29.3255C36.5176 29.643 35.6242 30.2274 34.8399 31.0625C34.4283 31.5006 33.812 32.1056 33.0489 32.7128C32.6744 32.5144 32.2486 32.4009 31.7961 32.4009H23.4788C21.9978 32.4009 20.793 33.6057 20.793 35.0867V57.2662C20.793 58.7472 21.9978 59.952 23.4788 59.952H31.7961C32.8057 59.952 33.6862 59.3915 34.1449 58.5658H55.3687C57.6141 58.5658 59.4408 56.7392 59.4408 54.4938C59.4408 53.7389 59.2344 53.0314 58.8748 52.4245C60.0448 51.7083 60.827 50.4182 60.827 48.9489C60.827 48.1939 60.6206 47.4865 60.261 46.8795C61.431 46.1633 62.2132 44.8733 62.2132 43.4039C62.2132 42.5541 61.9515 41.7643 61.5046 41.1107C62.7679 40.2527 63.5995 38.8044 63.5995 37.1656ZM58.8343 39.3316H58.1411C57.4235 39.3316 56.8415 39.9134 56.8415 40.6312C56.8415 41.3489 57.4233 41.9308 58.1411 41.9308C58.9533 41.9308 59.6141 42.5916 59.6141 43.4038C59.6141 44.2159 58.9533 44.8767 58.1411 44.8767H56.7549C56.0373 44.8767 55.4553 45.4585 55.4553 46.1763C55.4553 46.894 56.0371 47.4759 56.7549 47.4759C57.5671 47.4759 58.2279 48.1367 58.2279 48.9489C58.2279 49.761 57.5671 50.4218 56.7549 50.4218H55.3687C54.6511 50.4218 54.0691 51.0036 54.0691 51.7214C54.0691 52.4391 54.6509 53.021 55.3687 53.021C56.1809 53.021 56.8417 53.6818 56.8417 54.494C56.8417 55.3061 56.1809 55.9669 55.3687 55.9669H34.482V43.4042C34.482 42.6866 33.9001 42.1046 33.1823 42.1046C32.4645 42.1046 31.8827 42.6864 31.8827 43.4042V57.2664C31.8827 57.3142 31.844 57.3529 31.7961 57.3529H23.4788C23.431 57.3529 23.3922 57.3142 23.3922 57.2664V35.0863C23.3922 35.0384 23.431 34.9997 23.4788 34.9997H31.7961C31.844 34.9997 31.8827 35.0384 31.8827 35.0863V37.8588C31.8827 38.5765 32.4645 39.1584 33.1823 39.1584C33.9001 39.1584 34.482 38.5766 34.482 37.8588V35.0863C34.482 35.0232 34.4768 34.9614 34.4724 34.8995C35.4468 34.1452 36.2261 33.3827 36.7345 32.8415C37.2154 32.3291 37.7413 31.978 38.2975 31.7976C41.3565 30.8045 43.4151 29.2054 44.6032 28.0389C46.0924 26.5768 46.9812 25.0527 46.9812 23.9615C46.9812 23.3851 47.2061 22.8447 47.6144 22.4401C48.0278 22.0305 48.5752 21.8141 49.1668 21.8132C49.8953 21.8201 50.3777 22.1927 50.6545 22.5043C51.1288 23.0385 51.3622 23.8065 51.2797 24.5586C50.9959 27.1408 48.9307 30.3327 46.0186 32.6901C45.5908 33.0366 45.4276 33.615 45.6112 34.1339C45.7949 34.6528 46.2858 34.9997 46.8363 34.9997H58.834C60.0284 34.9997 60.9999 35.9712 60.9999 37.1656C60.9999 38.3601 60.0286 39.3316 58.8343 39.3316Z" fill="url(#paint0_linear)"/>
<path d="M27.6385 51.7933C26.9208 51.7933 26.332 52.3821 26.332 53.0997C26.332 53.8174 26.9208 54.4062 27.6385 54.4062C28.3561 54.4062 28.9449 53.8174 28.9449 53.0997C28.9451 52.3822 28.3563 51.7933 27.6385 51.7933Z" fill="url(#paint1_linear)"/>
<path d="M80.6834 42.0174L82.916 36.1097C83.0786 35.6799 83.0019 35.1963 82.7145 34.8376L78.7657 29.9088L79.0633 23.6003C79.085 23.1416 78.8626 22.705 78.4787 22.4529L73.2001 18.9856L71.534 12.8938C71.4127 12.4506 71.0664 12.1044 70.6234 11.9833L64.5317 10.3171L61.0643 5.03868C60.8121 4.65464 60.3757 4.4332 59.9169 4.45412L53.6084 4.75175L48.6797 0.802931C48.3211 0.515673 47.8375 0.438996 47.4076 0.601429L41.4998 2.834L35.5924 0.601591C35.1623 0.438996 34.6789 0.515673 34.3203 0.803093L29.3916 4.75191L23.0831 4.45428C22.6221 4.43256 22.1878 4.65497 21.9357 5.03884L18.4685 10.3174L12.3768 11.9836C11.9336 12.1049 11.5873 12.4511 11.4662 12.8942L9.80004 18.9859L4.52144 22.4531C4.1374 22.7053 3.91515 23.1417 3.93687 23.6005L4.2345 29.909L0.285686 34.8378C-0.00157156 35.1963 -0.0782492 35.6799 0.0841842 36.1098L2.31659 42.0174L0.0840221 47.925C-0.0785734 48.3547 -0.00189577 48.8383 0.285524 49.1971L4.23434 54.1258L3.93671 60.4343C3.91499 60.8931 4.1374 61.3296 4.52127 61.5817L9.79987 65.0491L11.466 71.1408C11.5873 71.584 11.9336 71.9303 12.3766 72.0514L18.4683 73.7175L21.9355 78.9961C22.1878 79.3802 22.625 79.601 23.0829 79.5807L29.3914 79.2831L34.3202 83.2319C34.6788 83.5193 35.1625 83.596 35.5923 83.4334L41.5 81.2008L47.4077 83.4334C47.5569 83.4896 47.7123 83.5172 47.867 83.5172C48.1581 83.5172 48.4456 83.4194 48.6797 83.2319L53.6084 79.2831L59.9169 79.5807C60.3771 79.6011 60.8121 79.38 61.0643 78.9961L64.5317 73.7175L70.6234 72.0514C71.0666 71.9301 71.4129 71.5839 71.534 71.1408L73.2001 65.0491L78.4787 61.5817C78.8628 61.3295 79.085 60.8931 79.0633 60.4343L78.7657 54.1258L82.7145 49.1971C83.0017 48.8385 83.0784 48.3549 82.916 47.925L80.6834 42.0174ZM78.0785 42.4768L80.2225 48.1505L76.4302 52.8839C76.2322 53.1308 76.1312 53.4416 76.1461 53.7577L76.4321 59.8162L71.3628 63.1461C71.0984 63.3197 70.9061 63.5841 70.8226 63.8895L69.2225 69.7399L63.3721 71.34C63.0668 71.4235 62.8026 71.6156 62.6287 71.8802L59.2988 76.9495L53.2403 76.6635C52.924 76.649 52.6134 76.7496 52.3665 76.9476L47.6331 80.7399L41.9594 78.5959C41.8114 78.54 41.6556 78.5121 41.5 78.5121C41.3444 78.5121 41.1886 78.5401 41.0406 78.5959L35.3669 80.7399L30.6335 76.9476C30.3866 76.7496 30.0754 76.649 29.7597 76.6635L23.7012 76.9495L20.3713 71.8802C20.1977 71.6158 19.9333 71.4235 19.6279 71.34L13.7775 69.7399L12.1774 63.8895C12.0939 63.5843 11.9018 63.32 11.6372 63.1461L6.5679 59.8162L6.85386 53.7577C6.86878 53.4414 6.76778 53.1308 6.56985 52.8839L2.77747 48.1505L4.92168 42.4768C5.03354 42.1808 5.03354 41.854 4.92168 41.558L2.77747 35.8843L6.56985 31.1509C6.76778 30.904 6.86878 30.5932 6.85386 30.2771L6.5679 24.2186L11.6372 20.8887C11.9016 20.7151 12.0939 20.4507 12.1774 20.1453L13.7775 14.295L19.6279 12.6948C19.9332 12.6113 20.1974 12.4192 20.3713 12.1546L23.7012 7.08531L29.7597 7.37127C30.0755 7.38602 30.3866 7.28519 30.6335 7.08726L35.3669 3.29487L41.0406 5.43909C41.3368 5.55095 41.6634 5.55095 41.9594 5.43909L47.6331 3.29487L52.3665 7.08726C52.6134 7.28535 52.9243 7.38618 53.2403 7.37127L59.2988 7.08531L62.6287 12.1546C62.8023 12.419 63.0667 12.6113 63.3721 12.6948L69.2225 14.295L70.8226 20.1453C70.9061 20.4506 71.0982 20.7148 71.3628 20.8887L76.4321 24.2186L76.1461 30.2771C76.1312 30.5934 76.2322 30.904 76.4302 31.1509L80.2225 35.8843L78.0783 41.558C77.9666 41.8542 77.9666 42.1808 78.0785 42.4768Z" fill="url(#paint2_linear)"/>
<path d="M65.9188 19.5772C65.5954 19.2251 65.26 18.8749 64.9214 18.5364C64.5827 18.198 64.2327 17.8624 63.8806 17.539C63.352 17.0536 62.5299 17.0886 62.0444 17.6174C61.5591 18.1461 61.5941 18.9683 62.1229 19.4537C62.4476 19.7519 62.7708 20.0616 63.0834 20.3741C63.3958 20.6865 63.7055 21.0099 64.004 21.3348C64.2603 21.6139 64.6104 21.7554 64.9617 21.7554C65.2757 21.7554 65.5907 21.6423 65.8402 21.4132C66.369 20.928 66.4042 20.1058 65.9188 19.5772Z" fill="url(#paint3_linear)"/>
<path d="M59.266 13.993C52.9989 10.0003 45.4533 8.2258 38.0201 8.99534C30.478 9.7767 23.3663 13.1651 17.9946 18.5366C12.083 24.4482 8.64109 32.3015 8.30293 40.6496C7.96688 48.9486 10.7156 57.0061 16.043 63.3374C16.2999 63.6428 16.6676 63.8002 17.0382 63.8002C17.3335 63.8002 17.6305 63.7001 17.8742 63.4952C18.4232 63.033 18.4939 62.2132 18.0319 61.6641C13.1231 55.83 10.5903 48.4044 10.8999 40.755C11.2115 33.0609 14.3836 25.8231 19.8323 20.3746C24.7831 15.4236 31.3375 12.3006 38.2878 11.5807C45.1409 10.8706 52.0948 12.5061 57.8693 16.185C58.4748 16.5707 59.2778 16.3927 59.6635 15.7874C60.0493 15.1819 59.8712 14.3787 59.266 13.993Z" fill="url(#paint4_linear)"/>
<path d="M69.4654 24.1923C69.0798 23.5868 68.276 23.4088 67.671 23.7945C67.0656 24.1801 66.8877 24.9835 67.2734 25.5887C70.9523 31.3633 72.5875 38.3175 71.8778 45.1702C71.1578 52.1204 68.0348 58.6747 63.084 63.6258C57.6353 69.0743 50.3975 72.2466 42.7036 72.5582C35.0555 72.8691 27.6284 70.3352 21.7945 65.4265C21.2454 64.9643 20.4256 65.035 19.9634 65.5843C19.5013 66.1333 19.5719 66.9531 20.1212 67.4153C26.1064 72.4512 33.6331 75.1831 41.4492 75.1829C41.9014 75.1829 42.3553 75.1737 42.8092 75.1553C51.1573 74.8173 59.0103 71.3754 64.9221 65.4638C70.2938 60.0922 73.6824 52.9803 74.4634 45.4381C75.2331 38.0045 73.4582 30.4592 69.4654 24.1923Z" fill="url(#paint5_linear)"/>
<defs>
<linearGradient id="paint0_linear" x1="42.1962" y1="19.214" x2="42.1962" y2="59.952" gradientUnits="userSpaceOnUse">
<stop stop-color="#FF9E03"/>
<stop offset="1" stop-color="#FFC215"/>
<stop offset="1" stop-color="white" stop-opacity="0"/>
</linearGradient>
<linearGradient id="paint1_linear" x1="27.6385" y1="51.7933" x2="27.6385" y2="54.4062" gradientUnits="userSpaceOnUse">
<stop stop-color="#FF9E03"/>
<stop offset="1" stop-color="#FFC215"/>
<stop offset="1" stop-color="white" stop-opacity="0"/>
</linearGradient>
<linearGradient id="paint2_linear" x1="41.5" y1="0.517517" x2="41.5" y2="83.5174" gradientUnits="userSpaceOnUse">
<stop stop-color="#FF9E03"/>
<stop offset="1" stop-color="#FFC215"/>
<stop offset="1" stop-color="white" stop-opacity="0"/>
</linearGradient>
<linearGradient id="paint3_linear" x1="63.9816" y1="17.1967" x2="63.9816" y2="21.7554" gradientUnits="userSpaceOnUse">
<stop stop-color="#FF9E03"/>
<stop offset="1" stop-color="#FFC215"/>
<stop offset="1" stop-color="white" stop-opacity="0"/>
</linearGradient>
<linearGradient id="paint4_linear" x1="34.0713" y1="8.81961" x2="34.0713" y2="63.8002" gradientUnits="userSpaceOnUse">
<stop stop-color="#FF9E03"/>
<stop offset="1" stop-color="#FFC215"/>
<stop offset="1" stop-color="white" stop-opacity="0"/>
</linearGradient>
<linearGradient id="paint5_linear" x1="47.1487" y1="23.5907" x2="47.1487" y2="75.1829" gradientUnits="userSpaceOnUse">
<stop stop-color="#FF9E03"/>
<stop offset="1" stop-color="#FFC215"/>
<stop offset="1" stop-color="white" stop-opacity="0"/>
</linearGradient>
</defs>
</svg>
