<svg width="71" height="85" viewBox="0 0 71 85" fill="none" xmlns="http://www.w3.org/2000/svg">
<path d="M68.3458 15.0955C62.8762 15.0955 58.7252 11.8944 54.3297 8.50585C49.2801 4.6126 43.557 0.19986 35.0493 0.19986C26.5415 0.19986 20.8184 4.6126 15.7685 8.50585C11.3733 11.8944 7.22215 15.0955 1.75251 15.0955C0.784991 15.0955 0 15.8801 0 16.848C0 37.3098 2.54835 50.9347 8.26295 61.0254C13.9373 71.0453 22.3841 77.2767 34.1729 84.083C34.444 84.2396 34.7465 84.3178 35.0491 84.3178C35.3517 84.3178 35.6542 84.2394 35.9253 84.083C47.7143 77.2767 56.1609 71.0454 61.8356 61.0254C67.5499 50.9347 70.0982 37.3098 70.0982 16.848C70.0984 15.8801 69.3134 15.0955 68.3458 15.0955ZM35.0493 80.5391C13.9104 68.2127 3.78744 57.5936 3.51094 18.5124C9.28485 17.9307 13.6626 14.5553 17.9089 11.2814C22.7399 7.55673 27.7358 3.70472 35.0493 3.70472C42.3626 3.70472 47.3582 7.5564 52.1896 11.2814C56.4356 14.5554 60.8137 17.9305 66.5876 18.5124C66.3111 57.5936 56.1882 68.2127 35.0493 80.5391Z" fill="url(#paint0_linear)"/>
<path d="M14.342 20.2145C13.8909 19.3581 12.8312 19.0295 11.9747 19.4804C11.757 19.5951 11.5362 19.7077 11.3147 19.8169C10.4465 20.2444 10.0891 21.2949 10.5164 22.1634C10.8214 22.7829 11.4434 23.1419 12.09 23.1419C12.3498 23.1419 12.614 23.084 12.8629 22.9615C13.1131 22.8383 13.362 22.7113 13.6076 22.582C14.4642 22.1307 14.7928 21.071 14.342 20.2145Z" fill="url(#paint1_linear)"/>
<path d="M60.6109 33.9565C60.6646 33.9613 60.7184 33.9638 60.7714 33.9638C61.6675 33.9638 62.4323 33.28 62.5146 32.3698C62.5351 32.146 62.5545 31.9213 62.5734 31.6975C62.6552 30.7329 61.9396 29.885 60.975 29.8032C60.0119 29.7202 59.1625 30.4371 59.081 31.4016C59.0626 31.6182 59.0437 31.8355 59.0238 32.0524C58.9366 33.0165 59.647 33.869 60.6109 33.9565Z" fill="url(#paint2_linear)"/>
<path d="M17.805 19.6076C18.1602 19.6076 18.5191 19.4998 18.8292 19.2755C19.8444 18.5426 20.8333 17.79 21.7893 17.0617C26.2625 13.6559 30.1255 10.7144 35.0471 10.7144C36.0149 10.7144 36.7996 9.92972 36.7996 8.96187C36.7996 7.99435 36.0149 7.20936 35.0471 7.20936C28.943 7.20936 24.4367 10.6403 19.666 14.2731C18.7272 14.9881 17.7566 15.7271 16.7776 16.4339C15.9926 17.0007 15.8161 18.0959 16.3826 18.8806C16.7251 19.3554 17.2612 19.6076 17.805 19.6076Z" fill="url(#paint3_linear)"/>
<path d="M35.0467 72.3721C30.5618 69.6069 25.1449 65.8937 21.0833 61.1052C20.4573 60.3669 19.3513 60.2764 18.6133 60.902C17.875 61.5279 17.7841 62.634 18.4101 63.3723C23.0763 68.8743 29.2665 72.9708 34.1378 75.9251C34.1467 75.9302 34.1562 75.934 34.1651 75.9391C34.2072 75.9634 34.2502 75.9846 34.2941 76.0054C34.3222 76.0187 34.3501 76.0335 34.3785 76.0452C34.4179 76.0613 34.4579 76.0739 34.4984 76.0873C34.5323 76.0984 34.5656 76.1112 34.5998 76.1203C34.6365 76.13 34.6737 76.1357 34.7107 76.143C34.748 76.1505 34.7853 76.1597 34.8231 76.1645C34.8762 76.1714 34.9294 76.173 34.9833 76.1752C35.0038 76.1758 35.0243 76.1793 35.0449 76.1793C35.0455 76.1793 35.0462 76.1793 35.0467 76.1793C35.0473 76.1793 35.0482 76.1793 35.0485 76.1793C35.069 76.1793 35.0896 76.1758 35.1101 76.1752C35.1638 76.173 35.2176 76.1715 35.2706 76.1645C35.3079 76.1597 35.3446 76.1505 35.3815 76.1433C35.4191 76.1361 35.4569 76.1303 35.4939 76.1203C35.5277 76.1114 35.5611 76.0988 35.5944 76.0877C35.6347 76.0744 35.6753 76.0618 35.715 76.0454C35.7435 76.0339 35.7711 76.0191 35.7992 76.0056C35.843 75.9847 35.8864 75.9635 35.9281 75.9392C35.9375 75.9341 35.9465 75.9304 35.9554 75.9253C40.8267 72.9711 47.0167 68.8748 51.6832 63.3721C57.0043 57.096 60.3583 48.6029 61.9365 37.4071C62.0716 36.4486 61.4042 35.5626 60.4459 35.4274C59.4864 35.2925 58.601 35.9597 58.4658 36.918C56.9827 47.4379 53.8899 55.3499 49.0099 61.1057C44.9488 65.8937 39.5324 69.6069 35.0467 72.3721Z" fill="url(#paint4_linear)"/>
<path d="M46.3587 22.1241L28.077 40.4056L23.739 36.0672C22.666 34.9945 21.2357 34.4037 19.7112 34.4037C18.1864 34.4037 16.7561 34.9945 15.6826 36.0675C13.4625 38.2889 13.4625 41.9027 15.6832 44.1234L24.0617 52.5007L24.1343 52.5722C24.145 52.5825 24.1558 52.5927 24.1665 52.6031L24.2401 52.6716C24.2531 52.6836 24.266 52.6956 24.2795 52.7071L24.3549 52.7731C24.3664 52.7835 24.3783 52.7933 24.3901 52.8032L24.4665 52.8664C24.475 52.874 24.4841 52.8807 24.4928 52.888L24.5705 52.9502C24.5848 52.9616 24.5992 52.9729 24.614 52.9837L24.6937 53.0437C24.7049 53.0519 24.7159 53.0601 24.7272 53.068L24.8072 53.1252C24.8192 53.1337 24.8312 53.142 24.8432 53.15L24.9247 53.2052C24.9377 53.2138 24.9507 53.2225 24.9638 53.2308L25.0463 53.2836C25.0574 53.2905 25.0685 53.2975 25.0798 53.3041L25.1634 53.3547C25.1746 53.3616 25.1856 53.3684 25.1969 53.3749L25.281 53.4231C25.2975 53.4328 25.3141 53.442 25.3307 53.4508L25.4163 53.4963C25.4251 53.5011 25.4342 53.506 25.4432 53.5103L25.5295 53.5545C25.5446 53.5624 25.56 53.5699 25.5753 53.5775L25.6625 53.6189C25.6749 53.6247 25.6872 53.6301 25.6995 53.6362L25.744 53.656C25.7752 53.6712 25.8069 53.6851 25.8395 53.6984L25.9285 53.7347C25.9367 53.7382 25.9446 53.7411 25.9528 53.7444L26.0422 53.7793C26.0555 53.7847 26.0692 53.7899 26.0828 53.795L26.1736 53.828C26.1879 53.8331 26.2027 53.8384 26.2175 53.8432L26.2614 53.858C26.2911 53.869 26.3213 53.8788 26.3522 53.888L26.4434 53.9158C26.4564 53.9194 26.4694 53.9237 26.4825 53.927L26.5745 53.9527C26.5872 53.9562 26.6 53.9597 26.613 53.9631L26.7056 53.9868C26.718 53.9899 26.7308 53.9928 26.7433 53.9961L26.8359 54.0173C26.8489 54.0204 26.8622 54.0234 26.8757 54.0262L26.9683 54.0452C26.9862 54.049 27.004 54.0521 27.0217 54.0556L27.0676 54.0635C27.0948 54.0689 27.1226 54.0742 27.1509 54.0783L27.2443 54.0926C27.2583 54.095 27.2724 54.0967 27.2864 54.0986L27.3805 54.1106C27.3939 54.1124 27.4075 54.1141 27.4208 54.1154L27.4653 54.1202C27.4947 54.1239 27.5241 54.1274 27.554 54.1299L27.6488 54.1377C27.6667 54.1392 27.6845 54.1405 27.7022 54.1412L27.7468 54.1437C27.7758 54.1461 27.8052 54.1478 27.8347 54.1484L27.9294 54.1515C27.9391 54.1519 27.9482 54.1519 27.9579 54.1522L28.052 54.1535C28.0606 54.1535 28.0688 54.1535 28.0775 54.1535C28.086 54.1535 28.0942 54.1535 28.1029 54.1535L28.1977 54.1522C28.2074 54.1519 28.2165 54.1519 28.2262 54.1515L28.3213 54.1484C28.3507 54.1478 28.3801 54.146 28.4092 54.1437L28.4537 54.1412C28.4719 54.1402 28.49 54.1391 28.5083 54.1376L28.6024 54.1297C28.6318 54.1272 28.6609 54.1243 28.69 54.1203L28.7345 54.1156C28.7475 54.1142 28.7604 54.1128 28.7733 54.1111L28.8681 54.0988C28.8828 54.097 28.8975 54.095 28.9119 54.0927L29.0054 54.0784C29.0342 54.074 29.0629 54.0687 29.091 54.063L29.1358 54.0551C29.1534 54.0523 29.1707 54.049 29.1879 54.0451L29.2803 54.026C29.2923 54.0236 29.3043 54.0213 29.3162 54.0185L29.4097 53.9969C29.4245 53.9935 29.4391 53.99 29.4539 53.9863L29.5459 53.9626C29.5582 53.9595 29.5702 53.9562 29.5822 53.9526L29.6739 53.927C29.6866 53.9235 29.6995 53.9197 29.7119 53.9159L29.8032 53.8882C29.832 53.8793 29.8607 53.8699 29.8888 53.8598L29.934 53.845C29.9501 53.8395 29.9662 53.834 29.9821 53.8282L30.073 53.7952C30.0866 53.7901 30.1002 53.7848 30.1136 53.7794L30.2029 53.7446C30.213 53.7408 30.2228 53.7367 30.2327 53.7326L30.3211 53.6963C30.3495 53.6848 30.3774 53.672 30.405 53.659L30.4505 53.6388C30.4653 53.6324 30.4799 53.6255 30.4947 53.6186L30.5816 53.5772C30.5931 53.5718 30.605 53.5658 30.6165 53.5599L30.7027 53.5164C30.7305 53.5024 30.7581 53.4876 30.7849 53.4722L30.8297 53.4482C30.8424 53.4413 30.8552 53.4342 30.8673 53.427L30.9521 53.3789C30.9657 53.371 30.9791 53.3631 30.9924 53.3549L31.076 53.3043C31.089 53.2964 31.1019 53.2882 31.1151 53.28L31.1972 53.2272C31.2066 53.2215 31.2156 53.2152 31.2245 53.209L31.3067 53.1541C31.3206 53.1444 31.3347 53.1351 31.3484 53.125L31.4284 53.0679C31.442 53.0582 31.4557 53.0485 31.469 53.0381L31.548 52.9782C31.5577 52.9706 31.5671 52.9634 31.5767 52.956L31.6545 52.8944C31.675 52.8783 31.695 52.8613 31.7151 52.8444L31.7593 52.8078C31.7747 52.7951 31.7902 52.7822 31.8048 52.769L31.8799 52.7026C31.8899 52.6941 31.8993 52.6854 31.909 52.6767L31.9829 52.6082C31.9939 52.5982 32.0044 52.588 32.0151 52.5776L32.0877 52.5071C32.1038 52.4917 32.1192 52.4759 32.1344 52.4601L54.4158 30.1791C56.6362 27.9577 56.6355 24.3439 54.4144 22.1238C53.3418 21.0511 51.9114 20.4603 50.387 20.4603C48.8622 20.4605 47.4317 21.0513 46.3587 22.1241ZM51.9364 27.7012L29.6264 50.0105C29.6228 50.0146 29.6185 50.0184 29.6149 50.022L29.452 50.1671C29.4501 50.1686 29.4483 50.1701 29.4462 50.1719L29.2379 50.3194L28.9418 50.473C28.9412 50.4734 28.94 50.4737 28.9394 50.474L28.7432 50.5458C28.7411 50.5465 28.7391 50.5473 28.7371 50.5479L28.4345 50.6188C28.431 50.6194 28.4273 50.6201 28.4235 50.6209L28.2718 50.639C28.2682 50.6396 28.2643 50.6399 28.2608 50.6404L28.1749 50.6455C28.1713 50.6455 28.1677 50.6459 28.1639 50.6462L28.077 50.648L28.0219 50.647L27.9907 50.6464C27.9871 50.646 27.9832 50.6457 27.9796 50.6457L27.892 50.6406C27.8889 50.6403 27.8856 50.6399 27.882 50.6391L27.7311 50.6211C27.7267 50.6204 27.7226 50.6192 27.7182 50.6186L27.4165 50.5481C27.4162 50.5481 27.4155 50.5478 27.415 50.5478L27.243 50.4855L26.9138 50.3178L26.6108 50.0897L18.1612 41.6447C17.3073 40.7904 17.3073 39.3997 18.1612 38.5454C18.572 38.1346 19.1224 37.9084 19.7112 37.9084C20.2995 37.9084 20.8499 38.1346 21.2608 38.545L26.8379 44.1228C27.1665 44.4517 27.6122 44.6362 28.0768 44.6362C28.5414 44.6362 28.9872 44.4517 29.3162 44.1231L48.8375 24.6023C49.2483 24.1916 49.7986 23.9654 50.3866 23.9654C50.975 23.9654 51.525 24.1916 51.9362 24.6026C52.7901 25.4568 52.7904 26.8469 51.9364 27.7012Z" fill="url(#paint5_linear)"/>
<defs>
<linearGradient id="paint0_linear" x1="35.0491" y1="0.19986" x2="35.0491" y2="84.3178" gradientUnits="userSpaceOnUse">
<stop stop-color="#FF9E03"/>
<stop offset="1" stop-color="#FFC215"/>
<stop offset="1" stop-color="white" stop-opacity="0"/>
</linearGradient>
<linearGradient id="paint1_linear" x1="12.44" y1="19.2782" x2="12.44" y2="23.1419" gradientUnits="userSpaceOnUse">
<stop stop-color="#FF9E03"/>
<stop offset="1" stop-color="#FFC215"/>
<stop offset="1" stop-color="white" stop-opacity="0"/>
</linearGradient>
<linearGradient id="paint2_linear" x1="60.7982" y1="29.7967" x2="60.7982" y2="33.9638" gradientUnits="userSpaceOnUse">
<stop stop-color="#FF9E03"/>
<stop offset="1" stop-color="#FFC215"/>
<stop offset="1" stop-color="white" stop-opacity="0"/>
</linearGradient>
<linearGradient id="paint3_linear" x1="26.4252" y1="7.20936" x2="26.4252" y2="19.6076" gradientUnits="userSpaceOnUse">
<stop stop-color="#FF9E03"/>
<stop offset="1" stop-color="#FFC215"/>
<stop offset="1" stop-color="white" stop-opacity="0"/>
</linearGradient>
<linearGradient id="paint4_linear" x1="39.974" y1="35.4101" x2="39.974" y2="76.1793" gradientUnits="userSpaceOnUse">
<stop stop-color="#FF9E03"/>
<stop offset="1" stop-color="#FFC215"/>
<stop offset="1" stop-color="white" stop-opacity="0"/>
</linearGradient>
<linearGradient id="paint5_linear" x1="35.0491" y1="20.4603" x2="35.0491" y2="54.1535" gradientUnits="userSpaceOnUse">
<stop stop-color="#FF9E03"/>
<stop offset="1" stop-color="#FFC215"/>
<stop offset="1" stop-color="white" stop-opacity="0"/>
</linearGradient>
</defs>
</svg>
