<svg width="73" height="84" viewBox="0 0 73 84" fill="none" xmlns="http://www.w3.org/2000/svg">
<path d="M23.0246 16.877C20.4998 17.8307 18.6907 20.2525 18.6907 23.1066C18.6907 24.2057 18.9834 25.2285 19.4561 26.1445C17.4534 26.9144 16.0205 28.8453 16.0205 31.1172C16.0205 33.3898 17.4534 35.3201 19.4561 36.0906C18.9834 37.0066 18.6907 38.0294 18.6907 39.1279C18.6907 41.9826 20.4998 44.4044 23.0246 45.3575C22.8245 45.9168 22.696 46.5114 22.696 47.1385C22.696 50.0838 25.0911 52.4789 28.0365 52.4789C28.7014 52.4789 29.3318 52.3414 29.9192 52.1197C30.7843 53.9053 32.5985 55.1491 34.712 55.1491C37.6573 55.1491 40.0524 52.754 40.0524 49.8087V12.4257C40.0524 9.48107 37.6573 7.08531 34.712 7.08531C32.5985 7.08531 30.7843 8.3298 29.9192 10.1147C29.3318 9.89308 28.7014 9.75552 28.0365 9.75552C25.0911 9.75552 22.696 12.1513 22.696 15.096C22.696 15.7237 22.8245 16.3176 23.0246 16.877ZM28.0365 12.4257C29.5091 12.4257 30.7067 13.6233 30.7067 15.096H33.3769C33.3769 13.813 32.903 12.6487 32.1461 11.7275C32.4557 10.5958 33.4825 9.75552 34.712 9.75552C36.1847 9.75552 37.3822 10.9531 37.3822 12.4257V49.8087C37.3822 51.2814 36.1847 52.4789 34.712 52.4789C33.4825 52.4789 32.4557 51.6393 32.1461 50.5069C32.903 49.5858 33.3769 48.4221 33.3769 47.1385H30.7067C30.7067 48.6112 29.5091 49.8087 28.0365 49.8087C26.5638 49.8087 25.3663 48.6112 25.3663 47.1385C25.3663 45.6658 26.5638 44.4683 28.0365 44.4683V41.7981C26.7359 41.7981 25.5586 42.2844 24.6322 43.0589C22.7736 42.7127 21.3609 41.0855 21.3609 39.1279C21.3609 36.9199 23.1582 35.1225 25.3663 35.1225C27.5749 35.1225 29.3716 36.9199 29.3716 39.1279H32.0418C32.0418 35.4472 29.0476 32.4523 25.3663 32.4523C23.8577 32.4523 22.4796 32.9745 21.3609 33.8226V33.7874C19.8883 33.7874 18.6907 32.5899 18.6907 31.1172C18.6907 29.6446 19.8883 28.447 21.3609 28.447V28.4125C22.4796 29.2606 23.8577 29.7821 25.3663 29.7821C29.0476 29.7821 32.0418 26.7879 32.0418 23.1066H29.3716C29.3716 25.3153 27.5749 27.1119 25.3663 27.1119C23.1582 27.1119 21.3609 25.3153 21.3609 23.1066C21.3609 21.1496 22.7736 19.5224 24.6322 19.1762C25.5586 19.9507 26.7359 20.4364 28.0365 20.4364V17.7662C26.5638 17.7662 25.3663 16.5686 25.3663 15.096C25.3663 13.6233 26.5638 12.4257 28.0365 12.4257Z" fill="url(#paint0_linear)"/>
<path d="M54.7386 9.75552C54.0737 9.75552 53.4439 9.89308 52.8566 10.1147C51.9908 8.3298 50.1766 7.08531 48.0631 7.08531C45.1178 7.08531 42.7227 9.48107 42.7227 12.4257V49.8087C42.7227 52.754 45.1178 55.1491 48.0631 55.1491C50.1766 55.1491 51.9908 53.9053 52.8566 52.1197C53.4439 52.3414 54.0737 52.4789 54.7386 52.4789C57.6839 52.4789 60.079 50.0838 60.079 47.1385C60.079 46.5114 59.9513 45.9168 59.7505 45.3575C62.2753 44.4044 64.0844 41.9826 64.0844 39.1279C64.0844 38.0294 63.7923 37.0066 63.3197 36.0906C65.3223 35.3201 66.7546 33.3898 66.7546 31.1172C66.7546 28.8453 65.3223 26.9144 63.3197 26.1445C63.7923 25.2285 64.0844 24.2057 64.0844 23.1066C64.0844 20.2525 62.2753 17.8307 59.7505 16.877C59.9513 16.3176 60.079 15.7237 60.079 15.0959C60.079 12.1513 57.6839 9.75552 54.7386 9.75552ZM61.4141 23.1066C61.4141 25.3152 59.6175 27.1119 57.4088 27.1119C55.2008 27.1119 53.4035 25.3152 53.4035 23.1066H50.7333C50.7333 26.7879 53.7282 29.7821 57.4088 29.7821C58.9173 29.7821 60.2955 29.2606 61.4141 28.4125V28.447C62.8868 28.447 64.0844 29.6446 64.0844 31.1172C64.0844 32.5899 62.8868 33.7874 61.4141 33.7874V33.8226C60.2955 32.9745 58.9173 32.4523 57.4088 32.4523C53.7282 32.4523 50.7333 35.4472 50.7333 39.1279H53.4035C53.4035 36.9199 55.2008 35.1225 57.4088 35.1225C59.6175 35.1225 61.4141 36.9199 61.4141 39.1279C61.4141 41.0855 60.0015 42.7127 58.1435 43.0589C57.2165 42.2844 56.0392 41.7981 54.7386 41.7981V44.4683C56.2113 44.4683 57.4088 45.6658 57.4088 47.1385C57.4088 48.6112 56.2113 49.8087 54.7386 49.8087C53.266 49.8087 52.0684 48.6112 52.0684 47.1385H49.3982C49.3982 48.4221 49.8721 49.5858 50.629 50.5069C50.3193 51.6393 49.2926 52.4789 48.0631 52.4789C46.5904 52.4789 45.3929 51.2814 45.3929 49.8087V12.4257C45.3929 10.9531 46.5904 9.75552 48.0631 9.75552C49.2926 9.75552 50.3193 10.5958 50.629 11.7275C49.8721 12.6487 49.3982 13.813 49.3982 15.0959H52.0684C52.0684 13.6233 53.266 12.4257 54.7386 12.4257C56.2113 12.4257 57.4088 13.6233 57.4088 15.0959C57.4088 16.5686 56.2113 17.7662 54.7386 17.7662V20.4364C56.0392 20.4364 57.2165 19.9507 58.1435 19.1762C60.0015 19.5224 61.4141 21.1496 61.4141 23.1066Z" fill="url(#paint1_linear)"/>
<path d="M62.4131 8.73578C56.1743 2.87187 48.0033 -0.0682288 39.4281 0.471551L39.5937 3.1359C47.429 2.64892 54.8868 5.32826 60.5851 10.6811C66.2861 16.0384 69.4263 23.2974 69.4263 31.1171C69.4263 40.5404 64.7293 49.2786 56.8614 54.4925C54.1475 56.2918 52.094 58.8583 50.8287 61.8245H31.894C30.6111 58.8368 28.5497 56.252 25.8313 54.4364C17.7229 49.0171 13.0637 39.9667 13.3668 30.2226L10.6979 30.1399C10.3654 40.8103 15.4692 50.7232 24.3482 56.6555C26.3091 57.9665 27.875 59.7514 28.9663 61.8245H25.3678V64.4947H30.0315C30.2903 65.3598 30.4976 66.2464 30.6026 67.1649H28.038V69.8352H30.7082V73.8405C30.7082 74.5791 31.3067 75.1756 32.0433 75.1756H33.3784C33.3784 79.5936 36.9711 83.1862 41.3891 83.1862C45.807 83.1862 49.3997 79.5936 49.3997 75.1756H50.7348C51.4721 75.1756 52.0699 74.5791 52.0699 73.8405V69.8352H54.7401V67.1649H52.1638C52.2583 66.2477 52.4467 65.3585 52.7003 64.4947H57.4103V61.8245H53.7538C54.8294 59.7743 56.3862 58.0115 58.3374 56.7194C66.9523 51.0061 72.0965 41.4361 72.0965 31.1171C72.0965 22.6768 68.5664 14.5182 62.4131 8.73578ZM41.3891 80.516C38.4437 80.516 36.0486 78.1209 36.0486 75.1756H46.7295C46.7295 78.1209 44.3344 80.516 41.3891 80.516ZM49.3997 72.5054H33.3784V69.8352H49.3997V72.5054ZM49.4949 67.1649H33.2715C33.1822 66.2562 33.0381 65.3631 32.8191 64.4947H49.9101C49.6976 65.3618 49.5744 66.2588 49.4949 67.1649Z" fill="url(#paint2_linear)"/>
<path d="M9.34585 9.75526C12.2912 9.75526 14.6863 12.151 14.6863 15.0957C14.6863 15.8343 15.2847 16.4308 16.0214 16.4308C16.7587 16.4308 17.3565 15.8343 17.3565 15.0957C17.3565 12.151 19.7516 9.75526 22.6969 9.75526C23.4342 9.75526 24.032 9.15876 24.032 8.42015C24.032 7.68219 23.4342 7.08505 22.6969 7.08505C19.7516 7.08505 17.3565 4.68994 17.3565 1.74462C17.3565 1.00666 16.7587 0.409515 16.0214 0.409515C15.2847 0.409515 14.6863 1.00666 14.6863 1.74462C14.6863 4.68994 12.2912 7.08505 9.34585 7.08505C8.60919 7.08505 8.01074 7.68219 8.01074 8.42015C8.01074 9.15876 8.60919 9.75526 9.34585 9.75526ZM16.0214 6.16781C16.6146 7.05962 17.3819 7.82757 18.2737 8.42015C17.3819 9.01339 16.6146 9.78068 16.0214 10.6725C15.4288 9.78068 14.6608 9.01339 13.769 8.42015C14.6608 7.82757 15.4288 7.05962 16.0214 6.16781Z" fill="url(#paint3_linear)"/>
<path d="M14.6862 23.1065C15.4235 23.1065 16.0213 22.51 16.0213 21.7714C16.0213 21.0335 15.4235 20.4363 14.6862 20.4363C11.7409 20.4363 9.34574 18.0412 9.34574 15.0959C9.34574 14.3579 8.74794 13.7608 8.01064 13.7608C7.27398 13.7608 6.67553 14.3579 6.67553 15.0959C6.67553 18.0412 4.28042 20.4363 1.33511 20.4363C0.598451 20.4363 0 21.0335 0 21.7714C0 22.51 0.598451 23.1065 1.33511 23.1065C4.28042 23.1065 6.67553 25.5023 6.67553 28.4469C6.67553 29.1856 7.27398 29.782 8.01064 29.782C8.74794 29.782 9.34574 29.1856 9.34574 28.4469C9.34574 25.5023 11.7409 23.1065 14.6862 23.1065ZM8.01064 24.0238C7.41805 23.1319 6.65011 22.3646 5.7583 21.7714C6.65011 21.1788 7.41675 20.4109 8.01064 19.5191C8.60387 20.4109 9.37117 21.1775 10.263 21.7714C9.37117 22.3646 8.60387 23.1319 8.01064 24.0238Z" fill="url(#paint4_linear)"/>
<defs>
<linearGradient id="paint0_linear" x1="28.0365" y1="7.08531" x2="28.0365" y2="55.1491" gradientUnits="userSpaceOnUse">
<stop stop-color="#FF9E03"/>
<stop offset="1" stop-color="#FFC215"/>
<stop offset="1" stop-color="white" stop-opacity="0"/>
</linearGradient>
<linearGradient id="paint1_linear" x1="54.7386" y1="7.08531" x2="54.7386" y2="55.1491" gradientUnits="userSpaceOnUse">
<stop stop-color="#FF9E03"/>
<stop offset="1" stop-color="#FFC215"/>
<stop offset="1" stop-color="white" stop-opacity="0"/>
</linearGradient>
<linearGradient id="paint2_linear" x1="41.3896" y1="0.408493" x2="41.3896" y2="83.1862" gradientUnits="userSpaceOnUse">
<stop stop-color="#FF9E03"/>
<stop offset="1" stop-color="#FFC215"/>
<stop offset="1" stop-color="white" stop-opacity="0"/>
</linearGradient>
<linearGradient id="paint3_linear" x1="16.0214" y1="0.409515" x2="16.0214" y2="16.4308" gradientUnits="userSpaceOnUse">
<stop stop-color="#FF9E03"/>
<stop offset="1" stop-color="#FFC215"/>
<stop offset="1" stop-color="white" stop-opacity="0"/>
</linearGradient>
<linearGradient id="paint4_linear" x1="8.01064" y1="13.7608" x2="8.01064" y2="29.782" gradientUnits="userSpaceOnUse">
<stop stop-color="#FF9E03"/>
<stop offset="1" stop-color="#FFC215"/>
<stop offset="1" stop-color="white" stop-opacity="0"/>
</linearGradient>
</defs>
</svg>
