<svg width="38" height="38" viewBox="0 0 38 38" fill="none" xmlns="http://www.w3.org/2000/svg">
<g clip-path="url(#clip0)">
<path d="M33.9685 8.43526C33.9271 8.43526 33.9271 8.39391 33.8858 8.35256C33.8444 8.31121 33.8444 8.26986 33.8031 8.22851L26.691 0.248096C26.6496 0.206746 26.5669 0.165397 26.5256 0.124048C26.4843 0.124048 26.4843 0.0826986 26.4429 0.0826986C26.3602 0.0413493 26.2362 0 26.1121 0H8.6627C6.09905 0 3.99023 2.10881 3.99023 4.67247V33.3275C3.99023 35.8912 6.09905 38 8.6627 38H29.3374C31.901 38 34.0098 35.8912 34.0098 33.3275V8.7247C34.0098 8.642 33.9685 8.51795 33.9685 8.43526ZM26.8977 2.81175L31.4875 7.98041H26.8977V2.81175ZM32.4385 33.2862C32.4385 35.0229 31.074 36.4287 29.3374 36.4287H8.6627C6.92603 36.4287 5.56151 35.0229 5.56151 33.3275V4.63112C5.56151 2.89445 6.96738 1.52992 8.6627 1.52992H25.3265V8.7247C25.3265 9.13819 25.6573 9.51034 26.1121 9.51034H32.4385V33.2862Z" fill="#1274AE"/>
<path d="M9.5725 9.51037H16.4778C16.8913 9.51037 17.2635 9.17957 17.2635 8.72473C17.2635 8.26988 16.9327 7.93909 16.4778 7.93909H9.5725C9.15901 7.93909 8.78687 8.26988 8.78687 8.72473C8.78687 9.17957 9.15901 9.51037 9.5725 9.51037Z" fill="#1274AE"/>
<path d="M16.4778 28.4897H9.5725C9.15901 28.4897 8.78687 28.8205 8.78687 29.2754C8.78687 29.6889 9.11766 30.061 9.5725 30.061H16.4778C16.8913 30.061 17.2635 29.7302 17.2635 29.2754C17.2635 28.8619 16.8913 28.4897 16.4778 28.4897Z" fill="#1274AE"/>
<path d="M8.78687 13.9347C8.78687 14.3482 9.11766 14.7203 9.5725 14.7203H28.0143C28.4278 14.7203 28.7999 14.3895 28.7999 13.9347C28.7999 13.5212 28.4691 13.149 28.0143 13.149H9.5725C9.15901 13.149 8.78687 13.4798 8.78687 13.9347Z" fill="#1274AE"/>
<path d="M28.0143 17.0359H9.5725C9.15901 17.0359 8.78687 17.3667 8.78687 17.8215C8.78687 18.235 9.11766 18.6072 9.5725 18.6072H28.0143C28.4278 18.6072 28.7999 18.2764 28.7999 17.8215C28.7999 17.3667 28.4691 17.0359 28.0143 17.0359Z" fill="#1274AE"/>
<path d="M28.0143 20.8813H9.5725C9.15901 20.8813 8.78687 21.2121 8.78687 21.667C8.78687 22.0805 9.11766 22.4526 9.5725 22.4526H28.0143C28.4278 22.4526 28.7999 22.1218 28.7999 21.667C28.7999 21.2121 28.4691 20.8813 28.0143 20.8813Z" fill="#1274AE"/>
<path d="M28.0143 24.7268H9.5725C9.15901 24.7268 8.78687 25.0576 8.78687 25.5124C8.78687 25.9259 9.11766 26.2981 9.5725 26.2981H28.0143C28.4278 26.2981 28.7999 25.9673 28.7999 25.5124C28.7999 25.099 28.4691 24.7268 28.0143 24.7268Z" fill="#1274AE"/>
</g>
<defs>
<clipPath id="clip0">
<rect width="38" height="38" fill="white"/>
</clipPath>
</defs>
</svg>
