<svg width="88" height="88" viewBox="0 0 88 88" fill="none" xmlns="http://www.w3.org/2000/svg">
<g clip-path="url(#clip0)">
<path d="M85.9556 49.2586L67.4667 57.1824V50.6068C67.4667 49.5539 66.3901 48.8439 65.4223 49.2588L45.1656 57.9402H41.0668V46.7597C41.0668 44.8335 39.5066 43.2734 37.5804 43.2734H32.8197C30.8935 43.2734 29.3334 44.8335 29.3334 46.7597V57.9402H24.9334H23.3621L20.5294 19.6986C20.4727 18.9327 19.8347 18.3402 19.0668 18.3402H10.2668C9.49887 18.3402 8.86087 18.9327 8.80415 19.6986L5.97149 57.9402H4.40021C3.6529 57.9402 3.02504 58.502 2.94254 59.2449L0.00915479 85.6448C-0.0874388 86.5136 0.592669 87.2735 1.46682 87.2735H10.2639C10.2649 87.2735 10.2658 87.2737 10.2668 87.2737H19.0668C19.0678 87.2737 19.0687 87.2735 19.0697 87.2735H27.8668H45.4667H52.7972C52.7982 87.2735 52.7991 87.2737 52.8001 87.2737H58.6667C58.6678 87.2737 58.6686 87.2735 58.6696 87.2735H66.0001H73.3306C73.3316 87.2735 73.3324 87.2737 73.3335 87.2737H79.2001C79.2011 87.2737 79.202 87.2735 79.203 87.2735H86.5334C87.3435 87.2735 88 86.6168 88 85.8069V50.607C88 49.5539 86.9234 48.8439 85.9556 49.2586ZM32.2668 46.7597C32.2668 46.4536 32.5136 46.2068 32.8197 46.2068H37.5804C37.8866 46.2068 38.1334 46.4536 38.1334 46.7597V57.9402H32.2668V46.7597ZM30.8002 60.8734H39.6001H44.0001V84.34H29.1796L26.5722 60.8734H30.8002ZM11.6289 21.2735H17.7049L20.4208 57.94H8.91278L11.6289 21.2735ZM5.71299 60.8734H7.33359H22.0002H23.6208L24.7806 71.311L26.2283 84.34H20.5336V74.0735C20.5336 73.2635 19.877 72.6069 19.067 72.6069H10.267C9.45693 72.6069 8.80037 73.2635 8.80037 74.0735V84.34H3.10548L5.71299 60.8734ZM11.7336 84.34V75.5401H17.6002V84.34H11.7336ZM46.9335 60.3739L64.5335 52.831V59.4068V84.3401H60.1335V75.5403C60.1335 74.7303 59.4769 74.0737 58.6669 74.0737H52.8003C51.9902 74.0737 51.3337 74.7304 51.3337 75.5403V84.3401H46.9337V60.3739H46.9335ZM54.2667 84.34V77.0067H57.2001V84.34H54.2667ZM77.7335 84.34H74.8001V77.0067H77.7335V84.34ZM85.0667 84.34H80.6667V75.5401C80.6667 74.7301 80.0101 74.0735 79.2001 74.0735H73.3335C72.5234 74.0735 71.8669 74.7303 71.8669 75.5401V84.34H67.4669V60.3737L85.0668 52.8308V84.34H85.0667Z" fill="url(#paint0_linear)"/>
<path d="M16.665 15.3068C16.7645 15.268 16.9651 15.1944 17.2493 15.0976C17.7304 14.9338 18.2617 14.7695 18.8254 14.6164C19.9883 14.3003 21.1284 14.0748 22.1759 13.9789C24.7756 13.7409 26.1602 14.289 26.425 15.681C26.4501 15.9457 26.5522 16.5642 26.737 17.3478C27.0438 18.6486 27.4803 19.951 28.0755 21.1796C29.8515 24.8464 32.6728 27.1402 36.666 27.1402C38.211 27.1827 39.7673 27.129 41.274 26.9133C43.2877 26.6249 44.8873 26.1036 45.8651 25.2135C48.0565 27.4049 50.1905 28.7854 52.2325 29.5155C53.65 30.0222 54.845 30.1611 55.7482 30.0812C58.7043 30.0461 61.4309 28.8203 63.9446 26.8217C64.7509 26.1808 65.4825 25.4995 66.1326 24.8142C68.5972 26.7437 71.1606 27.3234 73.2834 27.1531C73.7963 27.1397 74.161 27.1352 74.5144 27.1268C85.4858 26.8774 91.1034 13.7733 83.506 5.90234C83.3324 5.72239 83.1985 5.59349 83.1143 5.51752C82.1707 4.66708 80.6658 5.33671 80.6658 6.60703C80.6658 10.446 79.7656 12.5487 78.3877 13.4636C77.7406 13.8933 77.0588 14.0119 76.5237 13.9615C76.5035 13.9597 76.2656 13.9404 76.2656 13.9404C73.518 13.9404 70.7018 11.423 68.335 7.7182C66.9471 5.54364 65.2823 3.75804 63.3367 2.45729C61.2986 1.09553 59.6972 0.637823 58.5797 0.740604C54.9916 0.760026 52.0577 2.0001 49.7703 4.04747C49.4557 4.329 49.1677 4.61105 48.9052 4.88949C48.2232 3.94143 47.2093 3.24499 45.9665 2.79348C44.713 2.33818 43.4769 2.19552 42.5288 2.20687C39.1396 2.20704 36.3291 2.79966 34.0723 3.79929C33.0391 4.25682 32.2628 4.72913 31.7272 5.14025H29.3325C24.2477 5.14025 20.4039 6.65687 17.6897 9.20406C16.0268 10.7645 15.115 12.3475 14.7403 13.4791C14.35 14.6573 15.5084 15.7573 16.665 15.3068ZM29.3325 8.07346H32.2659C32.6509 8.07346 33.0206 7.92204 33.2949 7.65186C33.5455 7.40504 34.1864 6.9568 35.2601 6.48122C37.1423 5.64745 39.5482 5.14025 42.5324 5.14025C43.19 5.13235 44.1049 5.23788 44.965 5.55034C46.2676 6.02352 46.9324 6.77925 46.9324 8.07346C46.9324 9.63099 49.0398 10.1146 49.719 8.71301C49.7759 8.59562 49.9225 8.34056 50.1633 7.99423C50.5791 7.39628 51.0992 6.79455 51.7265 6.23303C53.5173 4.6303 55.7969 3.67347 58.6658 3.67347L58.9334 3.6489C58.9209 3.65474 59.1202 3.67382 59.4552 3.76938C60.0666 3.94383 60.817 4.30133 61.7069 4.89602C63.2927 5.95614 64.6816 7.44578 65.8629 9.2967C68.7076 13.7493 72.1267 16.8217 76.1635 16.8729C77.3965 16.9896 78.7291 16.7579 80.0104 15.9072C81.5776 14.8665 82.6812 13.1149 83.2212 10.5907C85.9454 16.511 81.7376 24.0282 74.446 24.1941C74.0867 24.2027 73.7157 24.207 73.3324 24.207L73.115 24.2232C72.5548 24.2687 71.8898 24.2311 71.1202 24.0504C69.966 23.7795 68.8251 23.2361 67.7459 22.3482C67.5046 22.1497 67.2678 21.9348 67.0361 21.7031C66.4091 21.0761 65.3734 21.1445 64.8344 21.8487C64.7211 21.9967 64.4827 22.282 64.1328 22.6582C63.541 23.2947 62.8645 23.9325 62.1188 24.5255C60.0492 26.171 57.8759 27.1402 55.7322 27.1402L55.4851 27.1612C54.997 27.2028 54.2263 27.1132 53.2196 26.7533C51.5959 26.1727 49.8301 25.0304 47.9694 23.1697L46.5027 21.7031L43.5694 18.7697C42.9965 18.1971 42.068 18.1971 41.4952 18.7697C40.9225 19.3426 40.9225 20.2711 41.4952 20.8439L43.7557 23.1044C43.3332 23.4401 42.3599 23.7943 40.8577 24.0095C39.5422 24.1979 38.1364 24.2464 36.9446 24.2154C36.8389 24.2127 36.763 24.2099 36.7342 24.2085C33.9611 24.207 32.0471 22.6508 30.7152 19.901C30.2224 18.8837 29.8524 17.7801 29.5918 16.6746C29.4361 16.0144 29.3529 15.51 29.3234 15.2444C28.6785 11.8303 25.8221 10.6995 21.9083 11.0579C21.1684 11.1256 20.4053 11.2451 19.6298 11.4066C21.8666 9.30684 24.9923 8.07346 29.3325 8.07346Z" fill="url(#paint1_linear)"/>
<path d="M32.2664 79.9401C33.0765 79.9401 33.733 79.2835 33.733 78.4735V66.7401C33.733 65.9301 33.0765 65.2735 32.2664 65.2735C31.4564 65.2735 30.7998 65.9301 30.7998 66.7401V78.4735C30.7998 79.2834 31.4565 79.9401 32.2664 79.9401Z" fill="url(#paint2_linear)"/>
<path d="M39.6004 79.9401C40.4104 79.9401 41.067 79.2835 41.067 78.4735V66.7401C41.067 65.9301 40.4104 65.2735 39.6004 65.2735C38.7904 65.2735 38.1338 65.9301 38.1338 66.7401V78.4735C38.1338 79.2834 38.7904 79.9401 39.6004 79.9401Z" fill="url(#paint3_linear)"/>
<path d="M52.8006 69.6735H58.6672C59.4772 69.6735 60.1338 69.017 60.1338 68.2069V62.3403C60.1338 61.5303 59.4772 60.8737 58.6672 60.8737H52.8006C51.9905 60.8737 51.334 61.5303 51.334 62.3403V68.2069C51.334 69.017 51.9905 69.6735 52.8006 69.6735ZM54.2672 63.8069H57.2006V66.7403H54.2672V63.8069Z" fill="url(#paint4_linear)"/>
<path d="M73.3328 69.6735H79.1994C80.0095 69.6735 80.666 69.017 80.666 68.2069V62.3403C80.666 61.5303 80.0095 60.8737 79.1994 60.8737H73.3328C72.5228 60.8737 71.8662 61.5303 71.8662 62.3403V68.2069C71.866 69.017 72.5228 69.6735 73.3328 69.6735ZM74.7994 63.8069H77.7328V66.7403H74.7994V63.8069Z" fill="url(#paint5_linear)"/>
</g>
<defs>
<linearGradient id="paint0_linear" x1="44" y1="18.3402" x2="44" y2="87.2737" gradientUnits="userSpaceOnUse">
<stop stop-color="#FF9E03"/>
<stop offset="1" stop-color="#FFC215"/>
<stop offset="1" stop-color="white" stop-opacity="0"/>
</linearGradient>
<linearGradient id="paint1_linear" x1="50.8304" y1="0.726723" x2="50.8304" y2="30.1022" gradientUnits="userSpaceOnUse">
<stop stop-color="#FF9E03"/>
<stop offset="1" stop-color="#FFC215"/>
<stop offset="1" stop-color="white" stop-opacity="0"/>
</linearGradient>
<linearGradient id="paint2_linear" x1="32.2664" y1="65.2735" x2="32.2664" y2="79.9401" gradientUnits="userSpaceOnUse">
<stop stop-color="#FF9E03"/>
<stop offset="1" stop-color="#FFC215"/>
<stop offset="1" stop-color="white" stop-opacity="0"/>
</linearGradient>
<linearGradient id="paint3_linear" x1="39.6004" y1="65.2735" x2="39.6004" y2="79.9401" gradientUnits="userSpaceOnUse">
<stop stop-color="#FF9E03"/>
<stop offset="1" stop-color="#FFC215"/>
<stop offset="1" stop-color="white" stop-opacity="0"/>
</linearGradient>
<linearGradient id="paint4_linear" x1="55.7339" y1="60.8737" x2="55.7339" y2="69.6735" gradientUnits="userSpaceOnUse">
<stop stop-color="#FF9E03"/>
<stop offset="1" stop-color="#FFC215"/>
<stop offset="1" stop-color="white" stop-opacity="0"/>
</linearGradient>
<linearGradient id="paint5_linear" x1="76.2661" y1="60.8737" x2="76.2661" y2="69.6735" gradientUnits="userSpaceOnUse">
<stop stop-color="#FF9E03"/>
<stop offset="1" stop-color="#FFC215"/>
<stop offset="1" stop-color="white" stop-opacity="0"/>
</linearGradient>
<clipPath id="clip0">
<rect width="88" height="88" fill="white"/>
</clipPath>
</defs>
</svg>
