<svg width="14" height="33" viewBox="0 0 14 33" fill="none" xmlns="http://www.w3.org/2000/svg">
    <path d="M6.91928 5.55537C8.45335 5.55537 9.69697 4.31175 9.69697 2.77768C9.69697 1.24361 8.45335 0 6.91928 0C5.38521 0 4.1416 1.24361 4.1416 2.77768C4.1416 4.31175 5.38521 5.55537 6.91928 5.55537Z" fill="#1274AE"/>
    <path d="M7.88684 6.87982C7.19473 6.73931 6.44222 6.74547 5.76244 6.90571C1.14447 7.44682 -0.354998 12.792 0.0684034 16.8676C0.252062 18.6297 3.02974 18.6481 2.84424 16.8676C2.69016 15.3824 2.75611 13.1409 3.54559 11.5477C3.54559 13.4841 3.54559 15.4206 3.54559 17.3564C3.54559 17.4248 3.55237 17.4889 3.55545 17.5548C3.5536 17.5863 3.54621 17.6128 3.54621 17.6448C3.54621 22.2541 3.5382 26.8616 3.34776 31.4673C3.26332 33.5146 6.43791 33.5066 6.52172 31.4673C6.67087 27.8576 6.70846 24.246 6.71709 20.6339C6.86747 20.6437 7.01785 20.6437 7.16823 20.6351C7.17747 24.2473 7.21383 27.8588 7.36175 31.4673C7.44618 33.5066 10.6208 33.5146 10.5357 31.4673C10.3453 26.8616 10.3385 22.2541 10.3385 17.6448C10.3385 17.5018 10.3194 17.3718 10.2904 17.2467C10.2861 15.2455 10.2097 13.2425 10.2331 11.2426C11.1785 12.8432 11.2648 15.2844 11.1009 16.8664C10.9147 18.6457 13.693 18.6278 13.8767 16.8664C14.31 12.7064 12.7384 7.22249 7.88684 6.87982Z" fill="#1274AE"/>
</svg>
