<svg width="13" height="13" viewBox="0 0 13 13" fill="none" xmlns="http://www.w3.org/2000/svg">
    <g clip-path="url(#clip0)">
        <path d="M6.57147 3.10318C8.76194 3.12467 10.1342 2.98838 10.3195 5.41629H12.9907C12.9907 1.65508 9.7104 1.14811 6.50193 1.14811C3.29321 1.14811 0.0131836 1.65508 0.0131836 5.41629H2.6636C2.86867 2.94211 4.3992 3.08194 6.57147 3.10318Z" fill="#1274AE"/>
        <path d="M1.33785 6.62544C1.98845 6.62544 2.52981 6.66438 2.65017 6.0244C2.66635 5.93742 2.6757 5.83881 2.6757 5.72477H2.64486H0C0 6.67677 0.599012 6.62544 1.33785 6.62544Z" fill="#1274AE"/>
        <path d="M10.337 5.72477H10.312C10.312 5.83957 10.3219 5.93843 10.3403 6.0244C10.4673 6.61457 11.0079 6.5779 11.6562 6.5779C12.3986 6.5779 13.0004 6.6267 13.0004 5.72477H10.337Z" fill="#1274AE"/>
        <path d="M9.0318 5.07644V4.69817C9.0318 4.52901 8.83685 4.51839 8.59614 4.51839H8.20295C7.96248 4.51839 7.76753 4.52901 7.76753 4.69817V5.0241V5.27696H4.98613V5.0241V4.69817C4.98613 4.52901 4.79118 4.51839 4.55072 4.51839H4.15728C3.91681 4.51839 3.72186 4.52901 3.72186 4.69817V5.07644V5.40667C3.08821 6.0651 1.0148 8.86799 0.939453 9.20732L0.940465 11.4716C0.940465 11.6807 1.11064 11.8509 1.31975 11.8509H11.4339C11.643 11.8509 11.8132 11.6807 11.8132 11.4716V9.19595C11.7386 8.86648 9.66571 6.06485 9.0318 5.40642V5.07644ZM4.84909 9.51201C4.64554 9.51201 4.48043 9.34715 4.48043 9.14335C4.48043 8.93955 4.64554 8.77469 4.84909 8.77469C5.05263 8.77469 5.21775 8.93955 5.21775 9.14335C5.21775 9.34715 5.05263 9.51201 4.84909 9.51201ZM4.84909 8.24774C4.64554 8.24774 4.48043 8.08288 4.48043 7.87908C4.48043 7.67528 4.64554 7.51042 4.84909 7.51042C5.05263 7.51042 5.21775 7.67528 5.21775 7.87908C5.21775 8.08288 5.05263 8.24774 4.84909 8.24774ZM4.84909 6.98372C4.64554 6.98372 4.48043 6.81886 4.48043 6.61506C4.48043 6.41151 4.64554 6.2464 4.84909 6.2464C5.05263 6.2464 5.21775 6.41151 5.21775 6.61506C5.21775 6.81886 5.05263 6.98372 4.84909 6.98372ZM6.36621 9.51201C6.16267 9.51201 5.99755 9.34715 5.99755 9.14335C5.99755 8.93955 6.16267 8.77469 6.36621 8.77469C6.57001 8.77469 6.73487 8.93955 6.73487 9.14335C6.73487 9.34715 6.57001 9.51201 6.36621 9.51201ZM6.36621 8.24774C6.16267 8.24774 5.99755 8.08288 5.99755 7.87908C5.99755 7.67528 6.16267 7.51042 6.36621 7.51042C6.57001 7.51042 6.73487 7.67528 6.73487 7.87908C6.73487 8.08288 6.57001 8.24774 6.36621 8.24774ZM6.36621 6.98372C6.16267 6.98372 5.99755 6.81886 5.99755 6.61506C5.99755 6.41151 6.16267 6.2464 6.36621 6.2464C6.57001 6.2464 6.73487 6.41151 6.73487 6.61506C6.73487 6.81886 6.57001 6.98372 6.36621 6.98372ZM7.88334 9.51201C7.67954 9.51201 7.51468 9.34715 7.51468 9.14335C7.51468 8.93955 7.67954 8.77469 7.88334 8.77469C8.08714 8.77469 8.252 8.93955 8.252 9.14335C8.252 9.34715 8.08714 9.51201 7.88334 9.51201ZM7.88334 8.24774C7.67954 8.24774 7.51468 8.08288 7.51468 7.87908C7.51468 7.67528 7.67954 7.51042 7.88334 7.51042C8.08714 7.51042 8.252 7.67528 8.252 7.87908C8.252 8.08288 8.08714 8.24774 7.88334 8.24774ZM7.88334 6.98372C7.67954 6.98372 7.51468 6.81886 7.51468 6.61506C7.51468 6.41151 7.67954 6.2464 7.88334 6.2464C8.08714 6.2464 8.252 6.41151 8.252 6.61506C8.252 6.81886 8.08714 6.98372 7.88334 6.98372Z" fill="#1274AE"/>
    </g>
    <defs>
        <clipPath id="clip0">
            <rect width="13" height="13" fill="white" transform="translate(0 -0.000366211)"/>
        </clipPath>
    </defs>
</svg>
