<svg width="12" height="12" viewBox="0 0 12 12" fill="none" xmlns="http://www.w3.org/2000/svg">
    <path d="M5.9999 -0.000366211C2.68628 -0.000366211 0 2.686 0 5.99953C0 9.31307 2.68628 11.9996 5.9999 11.9996C9.31351 11.9996 12 9.31307 12 5.99953C12 2.686 9.31351 -0.000366211 5.9999 -0.000366211ZM8.59382 7.14071H6.0501C6.0415 7.14071 6.0335 7.13863 6.02498 7.13831C6.01646 7.13871 6.0085 7.14071 5.99986 7.14071C5.7707 7.14071 5.58489 6.95491 5.58489 6.72575V2.48964C5.58489 2.26047 5.7707 2.07467 5.99986 2.07467C6.22902 2.07467 6.41483 2.26047 6.41483 2.48964V6.31078H8.59366C8.82283 6.31078 9.00863 6.49658 9.00863 6.72575C9.00863 6.95491 8.82299 7.14071 8.59382 7.14071Z" fill="#1274AE"/>
</svg>
