<svg width="11" height="11" viewBox="0 0 11 11" fill="none"
     xmlns="http://www.w3.org/2000/svg">
    <g clip-path="url(#clip0)">
        <path d="M10.7534 8.69312L9.05461 6.99415C8.71625 6.65715 8.15591 6.66739 7.80575 7.01767L6.9499 7.87333C6.89583 7.84353 6.83987 7.8124 6.78102 7.77937C6.24056 7.47991 5.50085 7.06946 4.72245 6.2905C3.94175 5.50989 3.53092 4.76904 3.23055 4.22823C3.19885 4.17094 3.16848 4.1157 3.13849 4.06324L3.71289 3.48969L3.99529 3.20695C4.34598 2.85616 4.35565 2.29598 4.01807 1.95799L2.3193 0.258839C1.98172 -0.0786723 1.42113 -0.0684332 1.07044 0.282351L0.591667 0.763874L0.604751 0.776863C0.444211 0.981708 0.31006 1.21797 0.210229 1.47274C0.118203 1.71526 0.0609084 1.94668 0.0347102 2.17858C-0.189602 4.03818 0.660181 5.73771 2.96638 8.04395C6.15425 11.2316 8.72326 10.9908 8.83409 10.979C9.07547 10.9502 9.3068 10.8925 9.54188 10.8012C9.79445 10.7025 10.0305 10.5686 10.2353 10.4084L10.2457 10.4177L10.7308 9.94273C11.0807 9.59201 11.0908 9.03164 10.7534 8.69312Z"
              fill="#1274AE"/>
    </g>
    <defs>
        <clipPath id="clip0">
            <rect width="11" height="11" fill="white"
                  transform="translate(0 -0.000488281)"/>
        </clipPath>
    </defs>
</svg>
