<svg width="16" height="14" viewBox="0 0 16 14" fill="#CFCFCF" xmlns="http://www.w3.org/2000/svg">
    <path d="M14.1081 3.23484H12.4079V0.45893C12.4079 0.205417 12.2024 0 11.9489 0H3.22995C2.9765 0 2.77102 0.205417 2.77102 0.45893V3.23484H1.07084C0.480408 3.23484 0 3.71519 0 4.30568V10.1938C0 10.7842 0.480408 11.2646 1.07084 11.2646H2.77102V13.5411C2.77102 13.7946 2.9765 14 3.22995 14H11.9489C12.2023 14 12.4078 13.7946 12.4078 13.5411V11.2646H14.108C14.6984 11.2646 15.1788 10.7842 15.1788 10.1938V4.30568C15.1789 3.71525 14.6985 3.23484 14.1081 3.23484ZM3.68888 0.91786H11.49V3.23484H3.68888V0.91786ZM11.49 13.0821H3.68888V8.52931H11.49V13.0821ZM14.261 10.1938C14.261 10.2767 14.191 10.3467 14.1081 10.3467H12.4079V8.07038C12.4079 7.81686 12.2024 7.61144 11.9489 7.61144H3.22995C2.9765 7.61144 2.77102 7.81686 2.77102 8.07038V10.3467H1.07084C0.987923 10.3467 0.91786 10.2767 0.91786 10.1938V4.30568C0.91786 4.22271 0.987923 4.1527 1.07084 4.1527H3.22995H11.9489H14.108C14.1909 4.1527 14.261 4.22271 14.261 4.30568V10.1938H14.261Z" fill="#CFCFCF;"/>
    <path d="M11.9487 6.53484C12.3092 6.53484 12.6015 6.24258 12.6015 5.88206C12.6015 5.52154 12.3092 5.22928 11.9487 5.22928C11.5882 5.22928 11.2959 5.52154 11.2959 5.88206C11.2959 6.24258 11.5882 6.53484 11.9487 6.53484Z" fill="#CFCFCF;"/>
    <path d="M9.67731 9.43491H5.50141C5.24796 9.43491 5.04248 9.64032 5.04248 9.89384C5.04248 10.1473 5.24796 10.3528 5.50141 10.3528H9.67731C9.93076 10.3528 10.1362 10.1473 10.1362 9.89384C10.1362 9.64038 9.93082 9.43491 9.67731 9.43491Z" fill="#CFCFCF;"/>
    <path d="M9.67731 11.2585H5.50141C5.24796 11.2585 5.04248 11.4639 5.04248 11.7174C5.04248 11.9709 5.24796 12.1763 5.50141 12.1763H9.67731C9.93076 12.1763 10.1362 11.9709 10.1362 11.7174C10.1362 11.4639 9.93082 11.2585 9.67731 11.2585Z" fill="#CFCFCF;"/>
</svg>
