<svg width="15" height="15" viewBox="0 0 15 15" fill="none" xmlns="http://www.w3.org/2000/svg">
    <path d="M10.421 4.01859C10.6361 4.23367 10.8869 4.4027 11.1664 4.52089C11.4563 4.64351 11.7637 4.7057 12.0799 4.7057C12.3961 4.7057 12.7035 4.64351 12.9934 4.52089C13.2729 4.40267 13.5237 4.23367 13.7388 4.01859C13.9539 3.80349 14.1228 3.55271 14.2411 3.27322C14.3637 2.98329 14.4259 2.67593 14.4259 2.35971C14.4259 2.04352 14.3637 1.73614 14.2411 1.4462C14.1228 1.16671 13.9539 0.915942 13.7388 0.700835C13.5237 0.485729 13.2729 0.316759 12.9934 0.19854C12.7035 0.075914 12.3961 0.0137329 12.0799 0.0137329C11.7637 0.0137329 11.4563 0.075914 11.1664 0.19854C10.8869 0.316759 10.6361 0.485754 10.421 0.700835C10.2059 0.915942 10.0369 1.16671 9.91868 1.4462C9.79608 1.73614 9.7339 2.0435 9.7339 2.35971C9.7339 2.58327 9.76511 2.80234 9.82666 3.014L4.68878 5.96598C4.65423 5.92653 4.61838 5.88807 4.58106 5.85072C4.36595 5.63561 4.11521 5.46662 3.83572 5.3484C3.54578 5.22577 3.23842 5.16359 2.92218 5.16359C2.60593 5.16359 2.29861 5.22577 2.00867 5.3484C1.72918 5.46662 1.47841 5.63561 1.2633 5.85072C1.04819 6.06583 0.879198 6.3166 0.761004 6.59609C0.638379 6.88605 0.576172 7.19338 0.576172 7.50962C0.576172 7.82582 0.638353 8.13317 0.761004 8.42313C0.879224 8.70262 1.04822 8.95337 1.2633 9.16848C1.47838 9.38358 1.72918 9.55255 2.00867 9.67083C2.29861 9.79342 2.60593 9.85566 2.92218 9.85566C3.23842 9.85566 3.54578 9.79345 3.83572 9.67083C4.11521 9.55258 4.36598 9.38358 4.58106 9.16848C4.61916 9.1304 4.65573 9.09113 4.69093 9.05083L9.82571 11.9909C9.7648 12.2015 9.73392 12.4195 9.73392 12.6419C9.73392 12.9581 9.79608 13.2655 9.91873 13.5554C10.037 13.8349 10.2059 14.0856 10.421 14.3007C10.6362 14.5158 10.8869 14.6848 11.1664 14.8031C11.4564 14.9257 11.7637 14.9878 12.0799 14.9878C12.3961 14.9878 12.7035 14.9257 12.9934 14.8031C13.2729 14.6848 13.5237 14.5158 13.7388 14.3007C13.9539 14.0856 14.1229 13.8349 14.2411 13.5554C14.3637 13.2654 14.4259 12.958 14.4259 12.6419C14.4259 12.3257 14.3637 12.0183 14.2411 11.7283C14.1229 11.4489 13.9539 11.1981 13.7388 10.983C13.5237 10.7679 13.2729 10.5989 12.9934 10.4807C12.7035 10.3581 12.3961 10.2959 12.0799 10.2959C11.7637 10.2959 11.4563 10.358 11.1664 10.4807C10.8869 10.5989 10.6361 10.7679 10.421 10.983C10.4064 10.9976 10.392 11.0125 10.3778 11.0275L5.20207 8.06394C5.24592 7.88351 5.26821 7.69819 5.26821 7.5096C5.26821 7.31997 5.24566 7.13356 5.20131 6.95212L10.3802 3.97663C10.3936 3.99078 10.4072 4.00475 10.421 4.01859ZM11.3979 11.6116C11.5934 11.4819 11.8278 11.4062 12.0799 11.4062C12.7623 11.4062 13.3155 11.9594 13.3155 12.6418C13.3155 13.3242 12.7623 13.8775 12.0799 13.8775C11.3975 13.8775 10.8443 13.3242 10.8443 12.6418C10.8443 12.6195 10.8449 12.5972 10.8461 12.5752C10.8676 12.1726 11.0817 11.8213 11.3979 11.6116ZM2.92221 8.74518C2.23979 8.74518 1.68659 8.19201 1.68659 7.5096C1.68659 6.82716 2.23979 6.27399 2.92221 6.27399C3.21178 6.27399 3.47787 6.37385 3.68852 6.5407C3.97428 6.767 4.15782 7.11676 4.15782 7.50962C4.15782 7.90187 3.9748 8.25121 3.68974 8.47756C3.47888 8.64495 3.21232 8.74518 2.92221 8.74518ZM10.8443 2.35971C10.8443 1.6773 11.3975 1.1241 12.0799 1.1241C12.7623 1.1241 13.3155 1.6773 13.3155 2.35971C13.3155 3.04212 12.7623 3.59533 12.0799 3.59533C11.8284 3.59533 11.5946 3.52 11.3995 3.39095C11.0829 3.18162 10.8683 2.83062 10.8463 2.42817C10.845 2.40551 10.8443 2.38268 10.8443 2.35971Z"
          fill="#1274AE"/>
    <path d="M12.0791 15C11.7612 15 11.4521 14.9375 11.1606 14.8142C10.8796 14.6954 10.6275 14.5254 10.4111 14.3091C10.1948 14.0928 10.0249 13.8407 9.90604 13.5596C9.78274 13.2681 9.72023 12.9591 9.72023 12.6411C9.72023 12.422 9.75032 12.2051 9.8097 11.9963L4.69294 9.06654C4.65914 9.1049 4.62436 9.14199 4.58947 9.17685C4.37327 9.3931 4.1211 9.56303 3.84001 9.68198C3.54838 9.8053 3.23934 9.86782 2.92144 9.86782C2.60356 9.86782 2.2945 9.8053 2.0029 9.68198C1.72183 9.56303 1.46966 9.39307 1.25341 9.17685C1.03711 8.96056 0.867185 8.70841 0.748343 8.42739C0.625018 8.13579 0.5625 7.82676 0.5625 7.50885C0.5625 7.1909 0.625044 6.88186 0.748343 6.59029C0.867185 6.30927 1.03714 6.0571 1.25341 5.8408C1.46966 5.62452 1.72183 5.45459 2.0029 5.3357C2.29447 5.21238 2.60351 5.14986 2.92144 5.14986C3.2394 5.14986 3.54844 5.21238 3.84001 5.3357C4.12103 5.45457 4.37317 5.6245 4.58947 5.8408C4.62358 5.87493 4.65764 5.91119 4.69076 5.9487L9.81066 3.00706C9.75063 2.79724 9.7202 2.57926 9.7202 2.35897C9.7202 2.04099 9.78272 1.73197 9.90599 1.44043C10.0249 1.15936 10.1949 0.907185 10.4111 0.690938C10.6274 0.474665 10.8795 0.304737 11.1606 0.185869C11.4521 0.062518 11.7612 0 12.0791 0C12.3971 0 12.7062 0.062518 12.9977 0.185843C13.2787 0.304685 13.5309 0.474639 13.7472 0.690912C13.9634 0.907134 14.1333 1.15931 14.2523 1.4404C14.3756 1.732 14.4381 2.04104 14.4381 2.35894C14.4381 2.6769 14.3756 2.98594 14.2522 3.27751C14.1333 3.55855 13.9634 3.81072 13.7472 4.027C13.5309 4.24327 13.2788 4.4132 12.9977 4.53206C12.7062 4.65539 12.3971 4.71791 12.0791 4.71791C11.7612 4.71791 11.4521 4.65539 11.1606 4.53206C10.8796 4.41325 10.6275 4.2433 10.4111 4.027C10.3996 4.01549 10.3883 4.00388 10.3771 3.99216L5.21545 6.95775C5.25858 7.13742 5.28043 7.32277 5.28043 7.50883C5.28043 7.69384 5.25884 7.87813 5.21621 8.05677L10.3747 11.0104C10.3867 10.9978 10.3988 10.9853 10.4111 10.9731C10.6274 10.7568 10.8795 10.5869 11.1606 10.4679C11.4521 10.3447 11.7612 10.2821 12.0791 10.2821C12.3971 10.2821 12.7062 10.3447 12.9977 10.4679C13.2788 10.5869 13.5309 10.7568 13.7472 10.9731C13.9634 11.1893 14.1333 11.4414 14.2523 11.7225C14.3756 12.0141 14.4381 12.3232 14.4381 12.6411C14.4381 12.959 14.3756 13.2681 14.2522 13.5596C14.1334 13.8406 13.9634 14.0928 13.7472 14.3091C13.5309 14.5254 13.2788 14.6953 12.9977 14.8142C12.7062 14.9375 12.3971 15 12.0791 15ZM4.68742 9.03352L4.69662 9.03881L9.84023 11.9839L9.83741 11.9937C9.77683 12.2032 9.74615 12.421 9.74615 12.6411C9.74615 12.9556 9.80799 13.2613 9.92994 13.5496C10.0475 13.8275 10.2155 14.0769 10.4294 14.2908C10.6435 14.5048 10.8928 14.6728 11.1707 14.7903C11.459 14.9123 11.7647 14.9741 12.0792 14.9741C12.3937 14.9741 12.6993 14.9123 12.9877 14.7903C13.2656 14.6728 13.515 14.5047 13.7289 14.2908C13.9428 14.0769 14.1109 13.8275 14.2284 13.5496C14.3504 13.2612 14.4122 12.9556 14.4122 12.6411C14.4122 12.3267 14.3504 12.021 14.2284 11.7326C14.1108 11.4546 13.9428 11.2052 13.7289 10.9914C13.515 10.7775 13.2656 10.6095 12.9876 10.4918C12.6993 10.3699 12.3937 10.3081 12.0792 10.3081C11.7647 10.3081 11.459 10.3699 11.1707 10.4918C10.8927 10.6094 10.6433 10.7775 10.4294 10.9914C10.4149 11.0059 10.4006 11.0207 10.3864 11.0356L10.3794 11.043L10.3706 11.0379L5.18642 8.06957L5.18873 8.06011C5.23238 7.88054 5.25451 7.69506 5.25451 7.50883C5.25451 7.32156 5.23212 7.13504 5.18798 6.95443L5.18567 6.94497L5.19412 6.94012L10.3818 3.95955L10.3888 3.96694C10.4022 3.98101 10.4157 3.99491 10.4295 4.0087C10.6435 4.22261 10.8928 4.3907 11.1707 4.50822C11.4591 4.63017 11.7647 4.69201 12.0792 4.69201C12.3937 4.69201 12.6993 4.63017 12.9877 4.50822C13.2657 4.39065 13.515 4.22259 13.7289 4.0087C13.9428 3.79481 14.1109 3.54541 14.2284 3.26745C14.3504 2.97909 14.4122 2.67345 14.4122 2.35899C14.4122 2.04456 14.3504 1.73892 14.2284 1.45054C14.1108 1.17252 13.9428 0.923152 13.7289 0.709289C13.515 0.495375 13.2656 0.327312 12.9877 0.209767C12.6993 0.0877637 12.3936 0.0259196 12.0791 0.0259196C11.7647 0.0259196 11.459 0.0877637 11.1707 0.209715C10.8927 0.327287 10.6433 0.495349 10.4294 0.709238C10.2155 0.9231 10.0475 1.1725 9.92989 1.45049C9.80794 1.73882 9.74612 2.04446 9.74612 2.35894C9.74612 2.58022 9.77715 2.79913 9.83839 3.0096L9.84122 3.01937L4.68529 5.98172L4.6783 5.97374C4.64333 5.9338 4.60728 5.89525 4.57115 5.8591C4.35723 5.64518 4.10783 5.47712 3.82992 5.35955C3.54157 5.2376 3.23592 5.17575 2.92144 5.17575C2.60698 5.17575 2.30134 5.2376 2.01299 5.35955C1.735 5.47712 1.48563 5.64521 1.27174 5.8591C1.05782 6.07301 0.889761 6.32241 0.772215 6.60034C0.650238 6.8887 0.58842 7.19434 0.58842 7.50883C0.58842 7.82326 0.650264 8.1289 0.772215 8.41731C0.889761 8.69522 1.05782 8.94459 1.27174 9.15853C1.4856 9.37239 1.73502 9.54048 2.01299 9.65808C2.30139 9.78006 2.60704 9.8419 2.92144 9.8419C3.23585 9.8419 3.54152 9.78006 3.82992 9.65808C4.10794 9.54045 4.35731 9.37239 4.57115 9.15853C4.60803 9.12167 4.64481 9.0823 4.68042 9.0415L4.68742 9.03352ZM12.0791 13.8897C11.3907 13.8897 10.8306 13.3296 10.8306 12.6411C10.8306 12.6194 10.8312 12.5967 10.8324 12.5737C10.8533 12.1817 11.0617 11.8177 11.39 11.6C11.5947 11.4642 11.8329 11.3925 12.0791 11.3925C12.7676 11.3925 13.3277 11.9526 13.3277 12.6411C13.3277 13.3296 12.7676 13.8897 12.0791 13.8897ZM12.0791 11.4184C11.838 11.4184 11.6047 11.4886 11.4043 11.6216C11.0829 11.8348 10.8788 12.1912 10.8583 12.5751C10.8571 12.5976 10.8565 12.6198 10.8565 12.6411C10.8565 13.3153 11.405 13.8637 12.0792 13.8637C12.7534 13.8637 13.3018 13.3153 13.3018 12.6411C13.3018 11.9669 12.7533 11.4184 12.0791 11.4184ZM2.92147 8.75737C2.23299 8.75737 1.67289 8.19728 1.67289 7.50883C1.67289 6.82035 2.23299 6.26025 2.92147 6.26025C3.20544 6.26025 3.47319 6.35343 3.69581 6.52974C3.99718 6.76841 4.17001 7.12527 4.17001 7.50883C4.17001 7.89174 3.99762 8.24823 3.69703 8.4869C3.4742 8.66385 3.20601 8.75737 2.92147 8.75737ZM2.92147 6.28617C2.2473 6.28617 1.69881 6.83466 1.69881 7.50883C1.69881 8.18299 2.2473 8.73145 2.92147 8.73145C3.2001 8.73145 3.46275 8.63988 3.68094 8.46661C3.97528 8.23289 4.14412 7.8838 4.14412 7.50883C4.14412 7.13325 3.97486 6.78378 3.67972 6.55006C3.46171 6.37741 3.19953 6.28617 2.92147 6.28617ZM12.0792 3.60751C11.8337 3.60751 11.5959 3.5361 11.3916 3.40099C11.063 3.18375 10.854 2.82005 10.8326 2.42809C10.8313 2.4036 10.8306 2.38097 10.8306 2.35892C10.8306 1.67044 11.3907 1.11034 12.0792 1.11034C12.7677 1.11034 13.3278 1.67044 13.3278 2.35892C13.3278 3.04739 12.7676 3.60751 12.0792 3.60751ZM12.0792 1.13629C11.405 1.13629 10.8565 1.68477 10.8565 2.35894C10.8565 2.38051 10.8571 2.40267 10.8585 2.4267C10.8795 2.81049 11.0841 3.16662 11.4059 3.37937C11.6059 3.51166 11.8387 3.58159 12.0792 3.58159C12.7533 3.58159 13.3018 3.03311 13.3018 2.35894C13.3018 1.68477 12.7533 1.13629 12.0792 1.13629Z"
          fill="#1274AE"/>
</svg>
